<svg xmlns="http://www.w3.org/2000/svg" width="120" height="119.639" viewBox="0 0 120 119.639">
  <g id="like" transform="translate(0 -0.771)">
    <path id="Path_3340" data-name="Path 3340" d="M183.247,107.443l-7.481-1h-7.232V55.821h4.738l11.222-6.235a80.229,80.229,0,0,0,32.669-33.666.244.244,0,0,1,.249-.249,21.115,21.115,0,0,0,1.995-5.985l1.746-7.98s5.736-3.741,8.978,3.741c0,0,4.489,12.22-1.5,22.444-.748,4.489-7.232,9.726-6.733,13.716,0,0,4.239,2.993,8.229,1.746,3.99-1.5,14.963,1.247,17.457,6.235,1.995,3.741,3.242,9.476-3.99,12.718,0,0,5.237,2.993,4.489,8.23a9.767,9.767,0,0,1-5.486,7.232s3.99,3.741,1.746,8.728c-2.244,4.738-4.988,5.736-4.988,5.736s4.239,5.985,1.5,9.975h0a16.324,16.324,0,0,1-8.728,5.985C218.908,111.183,201.452,109.687,183.247,107.443Z" transform="translate(-129.132 0)" fill="#faa628"/>
    <path id="Path_3341" data-name="Path 3341" d="M386.244,6.9l-1.5,7.481c-.249,1-.5,1.746-.748,2.494,4.239.249,5.486-3.242,5.736-6.484C389.736,7.9,386.244,6.9,386.244,6.9Z" transform="translate(-294.224 -4.699)" fill="#2b98aa"/>
    <rect id="Rectangle_7647" data-name="Rectangle 7647" width="18.953" height="57.856" transform="translate(26.683 53.577)" fill="#226168"/>
    <rect id="Rectangle_7648" data-name="Rectangle 7648" width="35.911" height="69.327" transform="translate(0 51.083)" fill="#2b98aa"/>
    <circle id="Ellipse_44" data-name="Ellipse 44" cx="6.733" cy="6.733" r="6.733" transform="translate(13.965 99.213)" fill="#faa628"/>
  </g>
</svg>
