<svg xmlns="http://www.w3.org/2000/svg" width="122" height="76.817" viewBox="0 0 122 76.817">
  <g id="Group_54393" data-name="Group 54393" transform="translate(-230.925 -350.562)">
    <g id="Group_54384" data-name="Group 54384" transform="translate(230.925 350.562)">
      <path id="Path_3372" data-name="Path 3372" d="M232.109,366.725h-1.184V350.562h1.184Z" transform="translate(-230.925 -350.562)" fill="#2b98aa"/>
      <path id="Path_3373" data-name="Path 3373" d="M274.353,350.562v16.163H273.8a.527.527,0,0,1-.247-.051.577.577,0,0,1-.19-.177L262.8,352.47q.034.343.034.651v13.6H261.8V350.562h.586a.6.6,0,0,1,.247.04.559.559,0,0,1,.19.177l10.54,13.993a6.481,6.481,0,0,1-.035-.651V350.562Z" transform="translate(-255.814 -350.562)" fill="#2b98aa"/>
      <path id="Path_3374" data-name="Path 3374" d="M367.36,350.562v16.163h-1.023V352.95a6.109,6.109,0,0,1,.034-.628l-6.4,11.3a.5.5,0,0,1-.46.3h-.184a.5.5,0,0,1-.46-.3l-6.574-11.32q.034.343.034.651v13.776h-1.034V350.562h.816a.747.747,0,0,1,.253.034.418.418,0,0,1,.184.183l6.563,11.24a4.642,4.642,0,0,1,.3.685q.069-.183.15-.36t.172-.337l6.379-11.229a.406.406,0,0,1,.19-.183.8.8,0,0,1,.259-.034Z" transform="translate(-327.949 -350.562)" fill="#2b98aa"/>
      <path id="Path_3375" data-name="Path 3375" d="M462.541,366.725h-.908a.4.4,0,0,1-.264-.086.566.566,0,0,1-.161-.223l-1.908-4.695h-7.988l-1.908,4.695a.489.489,0,0,1-.161.217.428.428,0,0,1-.276.091h-.9l6.655-16.163h1.161Zm-3.6-5.871-3.31-8.167a8.074,8.074,0,0,1-.333-.96q-.069.274-.149.52a4.673,4.673,0,0,1-.172.451l-3.31,8.156Z" transform="translate(-405.959 -350.562)" fill="#2b98aa"/>
      <path id="Path_3376" data-name="Path 3376" d="M540.237,366.725h-.908a.4.4,0,0,1-.264-.086.566.566,0,0,1-.161-.223L537,361.722h-7.988l-1.908,4.695a.491.491,0,0,1-.161.217.429.429,0,0,1-.276.091h-.9l6.655-16.163h1.161Zm-3.6-5.871-3.31-8.167a8.113,8.113,0,0,1-.333-.96q-.069.274-.149.52a4.7,4.7,0,0,1-.173.451l-3.31,8.156Z" transform="translate(-468.588 -350.562)" fill="#2b98aa"/>
    </g>
    <g id="Group_54385" data-name="Group 54385" transform="translate(241.812 389.363)">
      <path id="Path_3377" data-name="Path 3377" d="M383.708,588.655q-1.022-1.409-2.119-2.753t-2.222-2.661c-1.515-1.743-3.068-3.449-4.693-5.082a101.273,101.273,0,0,0-10.275-9.17,78.365,78.365,0,0,0-23.942-12.958,66.829,66.829,0,0,0-6.579-1.757,67.6,67.6,0,0,0-6.729-1.045,66.2,66.2,0,0,0-6.81-.33l-1.707.026c-.569.015-1.137.057-1.707.081l-.854.041-.852.073c-.568.051-1.137.091-1.7.151-1.131.148-2.27.253-3.4.45-.564.093-1.132.166-1.693.276l-1.687.32c-.565.1-1.121.234-1.681.358s-1.121.245-1.677.387l-1.665.439c-.277.074-.556.144-.833.222l-.826.247a105.593,105.593,0,0,0-12.993,4.79,78.78,78.78,0,0,1,12.607-5.966,69.312,69.312,0,0,1,13.6-3.49,65.1,65.1,0,0,1,7.031-.629l.442-.02.442,0,.884-.007.885-.005c.295,0,.59.016.884.023.589.021,1.179.033,1.768.063l1.766.122a66.375,66.375,0,0,1,7.012.987,65.7,65.7,0,0,1,19.751,7.531,77.564,77.564,0,0,1,11.511,8.088c.9.753,1.772,1.531,2.636,2.32.431.4.855.8,1.282,1.2s.836.817,1.253,1.226q2.476,2.482,4.767,5.13,1.135,1.331,2.22,2.7c.724.912,1.433,1.836,2.111,2.782A60.551,60.551,0,0,1,383.708,588.655Z" transform="translate(-287.064 -550.639)" fill="#faa628"/>
    </g>
    <g id="Group_54387" data-name="Group 54387" transform="translate(326.456 386.221)">
      <g id="Group_54386" data-name="Group 54386" transform="translate(0 0)">
        <path id="Path_3378" data-name="Path 3378" d="M745.64,558.189l-9.16,9.84-9.16-9.84a14.656,14.656,0,0,1,0-19.679,12.33,12.33,0,0,1,18.319,0A14.656,14.656,0,0,1,745.64,558.189Zm-3.746-10.1a5.427,5.427,0,1,0-5.413,5.815A5.625,5.625,0,0,0,741.894,548.085Z" transform="translate(-723.526 -534.433)" fill="#faa628"/>
      </g>
    </g>
    <g id="Group_54389" data-name="Group 54389" transform="translate(231.738 370.489)">
      <g id="Group_54388" data-name="Group 54388" transform="translate(0 0)">
        <path id="Path_3379" data-name="Path 3379" d="M251.321,469.819l-6.711,6.836-6.711-6.836a9.8,9.8,0,0,1,0-13.672,9.369,9.369,0,0,1,13.422,0A9.8,9.8,0,0,1,251.321,469.819Zm-2.745-7.02a3.967,3.967,0,1,0-3.966,4.04A4,4,0,0,0,248.576,462.8Z" transform="translate(-235.119 -453.315)" fill="#faa628"/>
      </g>
    </g>
    <g id="Group_54390" data-name="Group 54390" transform="translate(305.218 358.428)">
      <path id="Path_3380" data-name="Path 3380" d="M614.7,395.859h-.683v-1.247h.683v-1.529a2.1,2.1,0,0,1,.466-1.423,1.646,1.646,0,0,1,1.315-.538,2.135,2.135,0,0,1,.591.09,1.585,1.585,0,0,1,.544.272l-.544,1.016a.536.536,0,0,0-.452-.221.557.557,0,0,0-.457.211.994.994,0,0,0-.171.634v1.488h1.218v1.247h-1.218v3.168H614.7Z" transform="translate(-614.015 -391.122)" fill="#faa628"/>
      <path id="Path_3381" data-name="Path 3381" d="M633.478,409.277a2.133,2.133,0,0,1,.821-.84,2.361,2.361,0,0,1,1.2-.307,2.264,2.264,0,0,1,1.186.307,2.076,2.076,0,0,1,.789.84,2.581,2.581,0,0,1,.277,1.207,2.641,2.641,0,0,1-.277,1.217,2.059,2.059,0,0,1-.789.85,2.3,2.3,0,0,1-1.2.307,2.44,2.44,0,0,1-1.2-.286,2.014,2.014,0,0,1-.812-.82,2.606,2.606,0,0,1-.291-1.267A2.479,2.479,0,0,1,633.478,409.277Zm1.287,2.087a.86.86,0,0,0,.7.347.87.87,0,0,0,.715-.342,1.543,1.543,0,0,0,0-1.75.87.87,0,0,0-.715-.342.86.86,0,0,0-.7.347,1.506,1.506,0,0,0,0,1.74Z" transform="translate(-629.469 -404.832)" fill="#faa628"/>
      <path id="Path_3382" data-name="Path 3382" d="M663.695,408.672a2.511,2.511,0,0,1,.6-.437,1.156,1.156,0,0,1,.48-.156l-.065,1.408a.95.95,0,0,0-.157-.01,1.108,1.108,0,0,0-.683.221,1.438,1.438,0,0,0-.452.568,1.7,1.7,0,0,0-.157.709v1.72h-1.282V408.3h1.163l.1,1.006A2.163,2.163,0,0,1,663.695,408.672Z" transform="translate(-652.673 -404.79)" fill="#faa628"/>
      <path id="Path_3383" data-name="Path 3383" d="M697.576,399.263v1.911h.978v1.1h-.978v3.319h-1.292V402.27h-.628v-1.1h.628v-1.911Z" transform="translate(-679.824 -397.684)" fill="#faa628"/>
      <path id="Path_3384" data-name="Path 3384" d="M714.36,409.277a2.134,2.134,0,0,1,.821-.84,2.361,2.361,0,0,1,1.2-.307,2.264,2.264,0,0,1,1.186.307,2.075,2.075,0,0,1,.789.84,2.579,2.579,0,0,1,.277,1.207,2.638,2.638,0,0,1-.277,1.217,2.058,2.058,0,0,1-.789.85,2.3,2.3,0,0,1-1.2.307,2.44,2.44,0,0,1-1.2-.286,2.015,2.015,0,0,1-.812-.82,2.608,2.608,0,0,1-.291-1.267A2.48,2.48,0,0,1,714.36,409.277Zm1.287,2.087a.86.86,0,0,0,.7.347.87.87,0,0,0,.715-.342,1.543,1.543,0,0,0,0-1.75.87.87,0,0,0-.715-.342.86.86,0,0,0-.7.347,1.506,1.506,0,0,0,0,1.74Z" transform="translate(-694.665 -404.832)" fill="#faa628"/>
      <path id="Path_3385" data-name="Path 3385" d="M746.914,409.22v4.395h-1.172l-.092-.7a1.671,1.671,0,0,1-.6.669,1.628,1.628,0,0,1-.9.246,1.247,1.247,0,0,1-.923-.372,1.318,1.318,0,0,1-.378-.945V409.22h1.292v2.766q.027.643.544.643a.762.762,0,0,0,.678-.452,2.37,2.37,0,0,0,.254-1.167v-1.79Z" transform="translate(-717.868 -405.71)" fill="#faa628"/>
      <path id="Path_3386" data-name="Path 3386" d="M772.362,408.672a2.512,2.512,0,0,1,.6-.437,1.156,1.156,0,0,1,.48-.156l-.065,1.408a.949.949,0,0,0-.157-.01,1.109,1.109,0,0,0-.683.221,1.44,1.44,0,0,0-.452.568,1.7,1.7,0,0,0-.157.709v1.72h-1.282V408.3H771.8l.1,1.006A2.163,2.163,0,0,1,772.362,408.672Z" transform="translate(-740.266 -404.79)" fill="#faa628"/>
      <path id="Path_3387" data-name="Path 3387" d="M790.221,397.706a.7.7,0,0,1,.494-.206.673.673,0,0,1,.48.206.681.681,0,0,1,.212.508.665.665,0,0,1-.212.5.679.679,0,0,1-.48.2.7.7,0,0,1-.494-.2.657.657,0,0,1-.217-.5A.673.673,0,0,1,790.221,397.706Zm1.1,2.067v4.394h-1.292v-4.394Z" transform="translate(-755.874 -396.263)" fill="#faa628"/>
      <path id="Path_3388" data-name="Path 3388" d="M802.618,412.678a1.942,1.942,0,0,1-.72-.533l.535-.774a1.492,1.492,0,0,0,1.006.543.818.818,0,0,0,.4-.086.276.276,0,0,0,.152-.256.338.338,0,0,0-.175-.307,1.9,1.9,0,0,0-.392-.176q-.217-.07-.291-.09a1.557,1.557,0,0,1-.784-.538,1.363,1.363,0,0,1-.258-.82,1.506,1.506,0,0,1,.171-.689,1.361,1.361,0,0,1,.531-.553,1.711,1.711,0,0,1,.9-.216,2.847,2.847,0,0,1,.849.111,2.154,2.154,0,0,1,.674.362l-.489.825a1.741,1.741,0,0,0-.411-.266.985.985,0,0,0-.411-.106.6.6,0,0,0-.36.1.293.293,0,0,0-.138.241.33.33,0,0,0,.161.317,2.419,2.419,0,0,0,.531.216l.115.04.125.04a1.256,1.256,0,0,1,.95,1.247,1.578,1.578,0,0,1-.194.774,1.441,1.441,0,0,1-.586.568,1.955,1.955,0,0,1-.955.216A2.29,2.29,0,0,1,802.618,412.678Z" transform="translate(-765.461 -404.874)" fill="#faa628"/>
      <path id="Path_3389" data-name="Path 3389" d="M831.186,408.441a1.371,1.371,0,0,1,.374.956v3.3h-1.282V409.98a1.32,1.32,0,0,0-.1-.5.363.363,0,0,0-.323-.186.778.778,0,0,0-.706.478,2.354,2.354,0,0,0-.254,1.121v1.8H827.6V409.98a1.2,1.2,0,0,0-.111-.5.4.4,0,0,0-.341-.186.758.758,0,0,0-.683.478,2.349,2.349,0,0,0-.249,1.1v1.82h-1.292V408.3H826.1l.092.694a1.567,1.567,0,0,1,1.458-.915,1.408,1.408,0,0,1,.807.216,1.1,1.1,0,0,1,.438.639,2.124,2.124,0,0,1,.614-.623,1.328,1.328,0,0,1,.733-.231A1.265,1.265,0,0,1,831.186,408.441Z" transform="translate(-784.024 -404.79)" fill="#faa628"/>
    </g>
    <g id="Group_54391" data-name="Group 54391" transform="translate(269.236 370.384)">
      <path id="Path_3390" data-name="Path 3390" d="M434.738,463.188a.653.653,0,0,0,.12-.451v-2.574q0-.109.1-.109h1.271c.069,0,.1.036.1.109v3.1a1.583,1.583,0,0,1-.281,1.037,1.2,1.2,0,0,1-.958.331h-5.407a1.17,1.17,0,0,1-.937-.331,1.583,1.583,0,0,1-.281-1.037v-2.4q0-.109.1-.109h1.271c.069,0,.1.036.1.109v1.879a.651.651,0,0,0,.12.451.506.506,0,0,0,.38.125h3.9A.522.522,0,0,0,434.738,463.188Zm-3.672-3.589c-.069,0-.1-.036-.1-.109v-1.064q0-.108.1-.109h1.042c.069,0,.1.036.1.109v1.064c0,.073-.035.109-.1.109Zm1.6,0c-.069,0-.1-.036-.1-.109v-1.064q0-.108.1-.109h1.052c.069,0,.1.036.1.109v1.064c0,.073-.035.109-.1.109Z" transform="translate(-428.472 -457.242)" fill="#2b98aa"/>
      <path id="Path_3391" data-name="Path 3391" d="M479.49,458.323a.558.558,0,0,0,.239.386.945.945,0,0,0,.542.136h.24a.354.354,0,0,1,.313.152.913.913,0,0,1,.1.5q0,.663-.417.662a2.129,2.129,0,0,1-.677-.1.951.951,0,0,1-.5-.445.78.78,0,0,1-.464.44,2.768,2.768,0,0,1-.849.1h-4.594c-.069,0-.1-.036-.1-.109v-1.1q0-.108.1-.109h1.656v-4.431q0-.108.1-.109h1.271c.069,0,.1.036.1.109v4.431h.948a.506.506,0,0,0,.38-.125.652.652,0,0,0,.12-.451v-5.387q0-.109.1-.109h1.271c.069,0,.1.036.1.109Z" transform="translate(-464.625 -452.773)" fill="#2b98aa"/>
      <path id="Path_3392" data-name="Path 3392" d="M508.655,471.082a.358.358,0,0,1-.312-.147.882.882,0,0,1-.1-.494,1.011,1.011,0,0,1,.1-.516.347.347,0,0,1,.318-.157h2.584a1.771,1.771,0,0,0,.406-.038.439.439,0,0,0,.245-.147.657.657,0,0,0,.125-.288,2.393,2.393,0,0,0,.036-.462,1.838,1.838,0,0,0-.052-.44,1.054,1.054,0,0,0-.177-.38.92.92,0,0,0-.328-.272,1.11,1.11,0,0,0-.505-.1,1.265,1.265,0,0,0-.594.136,2.137,2.137,0,0,0-.479.342.093.093,0,0,1-.146.011l-.615-.771q-.094-.1-.031-.163a3.433,3.433,0,0,1,.834-.619,2.486,2.486,0,0,1,1.177-.25,2.811,2.811,0,0,1,1.135.206,2.055,2.055,0,0,1,.761.554,2.15,2.15,0,0,1,.422.815,3.67,3.67,0,0,1,.13.988,4.193,4.193,0,0,1-.12,1.108,1.629,1.629,0,0,1-.344.668,1.123,1.123,0,0,1-.552.331,2.912,2.912,0,0,1-.745.087Z" transform="translate(-492.769 -463.697)" fill="#2b98aa"/>
      <path id="Path_3393" data-name="Path 3393" d="M539.55,467.386c0-.072.034-.109.1-.109h1.271c.069,0,.1.036.1.109v2.563a.572.572,0,0,0,.224.429.907.907,0,0,0,.568.157h.229a.354.354,0,0,1,.313.152.911.911,0,0,1,.1.5q0,.663-.417.662a2.2,2.2,0,0,1-.594-.071.814.814,0,0,1-.427-.3v.174a2.981,2.981,0,0,1-.458,1.83,1.861,1.861,0,0,1-1.563.592h-.479q-.1,0-.1-.109v-1.1c0-.073.035-.109.1-.109h.229a.864.864,0,0,0,.437-.092.568.568,0,0,0,.234-.271,1.379,1.379,0,0,0,.1-.44q.021-.261.021-.6Z" transform="translate(-517.102 -464.464)" fill="#2b98aa"/>
      <path id="Path_3394" data-name="Path 3394" d="M555.386,460.158a.528.528,0,0,1-.312-.076.358.358,0,0,1-.1-.3,1.878,1.878,0,0,1,.026-.293,1.907,1.907,0,0,1,.073-.3.765.765,0,0,1,.125-.239.239.239,0,0,1,.193-.1h.365a.506.506,0,0,0,.38-.125.652.652,0,0,0,.12-.451v-5.387q0-.109.1-.109h1.271c.069,0,.1.036.1.109v5.908a1.582,1.582,0,0,1-.281,1.037,1.17,1.17,0,0,1-.938.331Z" transform="translate(-530.437 -452.773)" fill="#2b98aa"/>
      <path id="Path_3395" data-name="Path 3395" d="M577.117,460.049c0,.073-.035.109-.1.109h-1.261c-.07,0-.1-.036-.1-.109v-7.168q0-.109.1-.109h1.261c.069,0,.1.036.1.109Z" transform="translate(-547.106 -452.773)" fill="#2b98aa"/>
      <path id="Path_3396" data-name="Path 3396" d="M603.877,471.158a2.926,2.926,0,0,1-.859-.119,1.666,1.666,0,0,1-.682-.4.68.68,0,0,1-.156.185,1.512,1.512,0,0,0-.162.147.7.7,0,0,0-.13.2.754.754,0,0,0-.052.31v1.835h-1.479v-2.063a1.824,1.824,0,0,1,.083-.6,1.282,1.282,0,0,1,.214-.391,1.366,1.366,0,0,1,.281-.261q.151-.1.292-.206a1.231,1.231,0,0,0,.24-.228.622.622,0,0,0,.12-.331,1.947,1.947,0,0,1-.01-.206v-.228a3.252,3.252,0,0,1,.187-1.189,1.95,1.95,0,0,1,.505-.755,1.864,1.864,0,0,1,.734-.4,3.265,3.265,0,0,1,1.75,0,1.867,1.867,0,0,1,.735.4,1.955,1.955,0,0,1,.505.755,3.244,3.244,0,0,1,.188,1.189q0,.076-.005.147c0,.047-.005.092-.005.136a.759.759,0,0,0,.2.527.623.623,0,0,0,.448.168h.292a.354.354,0,0,1,.312.152.911.911,0,0,1,.1.5q0,.663-.417.662c-.125,0-.252-.005-.38-.016a1.478,1.478,0,0,1-.375-.081,1.321,1.321,0,0,1-.349-.19,1.234,1.234,0,0,1-.3-.342,1.654,1.654,0,0,1-.786.548A3.273,3.273,0,0,1,603.877,471.158Zm0-3.519q-.855,0-.854,1.1a1.329,1.329,0,0,0,.214.863.969.969,0,0,0,1.287,0,1.355,1.355,0,0,0,.208-.863Q604.731,467.639,603.877,467.639Z" transform="translate(-567.022 -463.697)" fill="#2b98aa"/>
      <path id="Path_3397" data-name="Path 3397" d="M634.738,467.386q0-.109.1-.109h1.26c.069,0,.1.036.1.109v2.563a.572.572,0,0,0,.224.429.905.905,0,0,0,.568.157h.24a.354.354,0,0,1,.312.152.912.912,0,0,1,.1.5q0,.663-.417.662a2.169,2.169,0,0,1-.688-.1.909.909,0,0,1-.49-.445.791.791,0,0,1-.495.445,3.286,3.286,0,0,1-.9.1h-1.073a.369.369,0,0,1-.312-.136.875.875,0,0,1-.1-.505,1.007,1.007,0,0,1,.1-.521.351.351,0,0,1,.318-.152h.646q.333,0,.417-.2a1.99,1.99,0,0,0,.083-.69Zm-.656,6.69c-.07,0-.1-.036-.1-.109V472.9c0-.072.034-.109.1-.109h1.042c.069,0,.1.036.1.109v1.064c0,.072-.035.109-.1.109Zm1.6,0q-.1,0-.1-.109V472.9q0-.108.1-.109h1.052c.069,0,.1.036.1.109v1.064c0,.072-.035.109-.1.109Z" transform="translate(-593.477 -464.464)" fill="#2b98aa"/>
      <path id="Path_3398" data-name="Path 3398" d="M653,458.844a.443.443,0,0,0,.292-.087.563.563,0,0,0,.162-.239,1.181,1.181,0,0,0,.068-.353q.01-.2.01-.429v-4.854c.014-.072.049-.109.1-.109H654.9q.1,0,.1.109v3.052a6.857,6.857,0,0,1,1.031-.375,4.348,4.348,0,0,1,1.177-.157,2.688,2.688,0,0,1,1.927.635,2.626,2.626,0,0,1,.667,1.982c0,.043,0,.085-.005.125s-.005.078-.005.114a.572.572,0,0,0,.224.429.906.906,0,0,0,.568.157h.24a.355.355,0,0,1,.313.152.913.913,0,0,1,.1.5q0,.663-.417.662a2.022,2.022,0,0,1-.776-.136,1.04,1.04,0,0,1-.526-.548,1.131,1.131,0,0,1-.677.554,4.265,4.265,0,0,1-1.177.13h-2.49a.706.706,0,0,1-.594-.228.717.717,0,0,1-.474.185,6.177,6.177,0,0,1-.745.043h-.813a.369.369,0,0,1-.312-.136.9.9,0,0,1-.1-.516,1.008,1.008,0,0,1,.094-.538.379.379,0,0,1,.323-.125Zm3.938-2.129a3.579,3.579,0,0,0-1.036.152,6.731,6.731,0,0,0-.9.337v1.216a2.7,2.7,0,0,1-.031.424h2.063q.385,0,.63-.022a.843.843,0,0,0,.38-.109.433.433,0,0,0,.182-.272,2.173,2.173,0,0,0,.047-.51,1.977,1.977,0,0,0-.062-.521.886.886,0,0,0-.213-.385.911.911,0,0,0-.406-.233A2.331,2.331,0,0,0,656.939,456.715Zm-.333-2.226c-.07,0-.1-.036-.1-.109v-1.064c0-.072.035-.109.1-.109H657.9c.069,0,.1.036.1.109v1.064c0,.073-.035.109-.1.109Z" transform="translate(-608.761 -452.773)" fill="#2b98aa"/>
      <path id="Path_3399" data-name="Path 3399" d="M697.4,461.421a.852.852,0,0,1-.49.44,2.909,2.909,0,0,1-.875.1H695.2a.561.561,0,0,1-.313-.071q-.1-.07-.1-.31a2.391,2.391,0,0,1,.021-.3,1.39,1.39,0,0,1,.073-.3.713.713,0,0,1,.135-.233.269.269,0,0,1,.208-.092h.344q.323,0,.412-.19a1.8,1.8,0,0,0,.088-.679V457.5q0-.087.151-.1t.266-.011h.958c.069,0,.1.036.1.109v2.563a.572.572,0,0,0,.224.429.906.906,0,0,0,.568.157h.24a.354.354,0,0,1,.313.152.911.911,0,0,1,.1.5q0,.663-.417.662a2.168,2.168,0,0,1-.687-.1A.909.909,0,0,1,697.4,461.421Zm-1.24-5.126c-.069,0-.1-.036-.1-.109v-1.064q0-.109.1-.109h1.292q.1,0,.1.109v1.064c0,.073-.035.109-.1.109Z" transform="translate(-643.139 -454.579)" fill="#2b98aa"/>
      <path id="Path_3400" data-name="Path 3400" d="M713.7,457.5c0-.072.035-.109.1-.109h1.26c.069,0,.1.036.1.109v2.563a.572.572,0,0,0,.224.429.906.906,0,0,0,.568.157h.24a.354.354,0,0,1,.312.152.911.911,0,0,1,.1.5q0,.663-.417.662a2.17,2.17,0,0,1-.688-.1.908.908,0,0,1-.489-.445.791.791,0,0,1-.495.445,3.286,3.286,0,0,1-.9.1h-1.073a.369.369,0,0,1-.312-.136.875.875,0,0,1-.1-.505,1.009,1.009,0,0,1,.1-.521.352.352,0,0,1,.318-.152h.646q.333,0,.417-.2a1.99,1.99,0,0,0,.083-.69Zm-.6-1.206c-.069,0-.1-.036-.1-.109v-1.064q0-.109.1-.109h1.042q.1,0,.1.109v1.064c0,.073-.035.109-.1.109Zm1.6,0c-.07,0-.1-.036-.1-.109v-1.064q0-.109.1-.109h1.052q.1,0,.1.109v1.064c0,.073-.035.109-.1.109Z" transform="translate(-657.125 -454.579)" fill="#2b98aa"/>
      <path id="Path_3401" data-name="Path 3401" d="M731.354,460.158a.528.528,0,0,1-.312-.076.359.359,0,0,1-.1-.3,1.89,1.89,0,0,1,.026-.293,1.954,1.954,0,0,1,.073-.3.764.764,0,0,1,.125-.239.238.238,0,0,1,.193-.1h.365a.507.507,0,0,0,.38-.125.653.653,0,0,0,.12-.451v-5.387q0-.109.1-.109h1.271c.069,0,.1.036.1.109v5.908a1.583,1.583,0,0,1-.281,1.037,1.17,1.17,0,0,1-.938.331Z" transform="translate(-672.279 -452.773)" fill="#2b98aa"/>
      <path id="Path_3402" data-name="Path 3402" d="M762.767,474.295a1.759,1.759,0,0,1-.151-.391,1.814,1.814,0,0,1-.057-.467,2.053,2.053,0,0,1,.109-.668,1.6,1.6,0,0,1,.338-.57,1.688,1.688,0,0,1,.578-.4,2.036,2.036,0,0,1,.818-.152,2,2,0,0,1,.917.206,1.6,1.6,0,0,1,.615.51.121.121,0,0,1,0,.163l-.521.576q-.052.054-.089.049a.172.172,0,0,1-.078-.038,1.6,1.6,0,0,0-.359-.288.844.844,0,0,0-.422-.1.656.656,0,0,0-.495.2.759.759,0,0,0-.193.548.986.986,0,0,0,.12.494,1.155,1.155,0,0,0,.266.331h1.771c.069,0,.1.04.1.119v.836q0,.12-.1.119h-3.74q-.1,0-.1-.119v-.836c0-.079.035-.119.1-.119Z" transform="translate(-697.391 -467.985)" fill="#2b98aa"/>
      <path id="Path_3403" data-name="Path 3403" d="M787.121,452.882q0-.109.1-.109h1.261q.1,0,.1.109v5.387a.652.652,0,0,0,.12.451.507.507,0,0,0,.38.125h.281a.35.35,0,0,1,.312.157,1,1,0,0,1,.1.527.878.878,0,0,1-.1.51.39.39,0,0,1-.318.119H788.34a1.17,1.17,0,0,1-.938-.331,1.582,1.582,0,0,1-.281-1.037Z" transform="translate(-717.568 -452.773)" fill="#2b98aa"/>
      <path id="Path_3404" data-name="Path 3404" d="M800.23,471.158a3.353,3.353,0,0,1-1.016-.147,1.647,1.647,0,0,1-.776-.516.918.918,0,0,1-.3.315,1.524,1.524,0,0,1-.391.179,1.993,1.993,0,0,1-.4.076q-.2.016-.354.016a.364.364,0,0,1-.313-.141.88.88,0,0,1-.1-.5,1.052,1.052,0,0,1,.094-.521.349.349,0,0,1,.323-.152h.3a.581.581,0,0,0,.432-.206,1.218,1.218,0,0,0,.213-.771v-.217a2.227,2.227,0,0,1,.594-1.667,2.328,2.328,0,0,1,1.7-.581,2.29,2.29,0,0,1,1.677.614,2.488,2.488,0,0,1,.625,1.852q0,.076-.005.147t-.005.136a.759.759,0,0,0,.2.527.624.624,0,0,0,.448.168h.3a.354.354,0,0,1,.312.152.911.911,0,0,1,.1.5q0,.663-.417.662-.188,0-.386-.016a1.563,1.563,0,0,1-.386-.081,1.3,1.3,0,0,1-.354-.19,1.111,1.111,0,0,1-.292-.342,1.655,1.655,0,0,1-.787.548A3.271,3.271,0,0,1,800.23,471.158Zm0-3.519q-.854,0-.854,1.1a1.329,1.329,0,0,0,.214.863.969.969,0,0,0,1.286,0,1.354,1.354,0,0,0,.208-.863Q801.085,467.639,800.23,467.639Z" transform="translate(-725.187 -463.697)" fill="#2b98aa"/>
      <path id="Path_3405" data-name="Path 3405" d="M830.509,461.964a.528.528,0,0,1-.312-.076.359.359,0,0,1-.1-.3,1.893,1.893,0,0,1,.026-.293,1.914,1.914,0,0,1,.073-.3.765.765,0,0,1,.125-.239.238.238,0,0,1,.193-.1h.365a.506.506,0,0,0,.38-.125.653.653,0,0,0,.12-.451V457.5q0-.109.1-.109h1.271c.069,0,.1.036.1.109v3.1a1.582,1.582,0,0,1-.281,1.037,1.17,1.17,0,0,1-.938.331Zm.958-5.669c-.07,0-.1-.036-.1-.109v-1.064c0-.072.035-.109.1-.109h1.292c.069,0,.1.036.1.109v1.064c0,.073-.035.109-.1.109Z" transform="translate(-752.205 -454.579)" fill="#2b98aa"/>
      <path id="Path_3406" data-name="Path 3406" d="M847.836,462.58a1.434,1.434,0,0,1-.1-.261,1.112,1.112,0,0,1-.042-.315,1.187,1.187,0,0,1,.068-.391,1.073,1.073,0,0,1,.2-.353.945.945,0,0,1,.349-.25,1.3,1.3,0,0,1,.516-.092,1.256,1.256,0,0,1,.578.125,1.054,1.054,0,0,1,.38.31.075.075,0,0,1-.01.1l-.312.337c-.035.043-.069.047-.1.011a.642.642,0,0,0-.49-.25.427.427,0,0,0-.323.13.48.48,0,0,0-.125.348.571.571,0,0,0,.1.337.821.821,0,0,0,.214.217h1.042c.042,0,.063.025.063.076v.489q0,.076-.063.076H847.45q-.062,0-.062-.076v-.489c0-.051.021-.076.062-.076Zm1.573-2.53c0,.073-.035.109-.1.109h-1.261c-.069,0-.1-.036-.1-.109v-7.168q0-.109.1-.109H849.3q.1,0,.1.109Z" transform="translate(-766.147 -452.773)" fill="#2b98aa"/>
    </g>
  </g>
</svg>
