<svg xmlns="http://www.w3.org/2000/svg" width="120" height="120" viewBox="0 0 120 120">
  <g id="secure" transform="translate(0 -52.759)">
    <path id="Union_3" data-name="Union 3" d="M98.726,73.364H3.823A3.824,3.824,0,0,1,0,69.541V3.823A3.823,3.823,0,0,1,3.823,0H105.85a3.823,3.823,0,0,1,3.823,3.823V69.541a3.823,3.823,0,0,1-3.823,3.823Z" transform="translate(0 52.759)" fill="#faa628"/>
    <path id="Union_2" data-name="Union 2" d="M102.55,14.22H0V0H109.674V14.22Z" transform="translate(0 64.383)" fill="#2b98aa"/>
    <path id="Union_4" data-name="Union 4" d="M8,16H7.859a8,8,0,0,1,0-16H8A8,8,0,0,1,8,16Z" transform="translate(10 105.759)" fill="#2b98aa"/>
    <path id="Union_1" data-name="Union 1" d="M36.9,86.79a8.842,8.842,0,0,1-3.761-.839A57.754,57.754,0,0,1,0,33.645V20.874a.838.838,0,0,1,.43-.733L36.5.1A.828.828,0,0,1,37.3.1l36.07,20.036a.838.838,0,0,1,.429.731V33.645A57.753,57.753,0,0,1,40.663,85.95a8.842,8.842,0,0,1-3.76.839Z" transform="translate(46.196 85.97)" fill="#2b98aa"/>
  </g>
</svg>
