<?xml version="1.0" standalone="no"?>
<!DOCTYPE svg PUBLIC "-//W3C//DTD SVG 1.1//EN" "http://www.w3.org/Graphics/SVG/1.1/DTD/svg11.dtd" >
<svg xmlns="http://www.w3.org/2000/svg">
<metadata>Generated by IcoMoon</metadata>
<defs>
<font id="inma2" horiz-adv-x="1024">
<font-face units-per-em="1024" ascent="960" descent="-64" />
<missing-glyph horiz-adv-x="1024" />
<glyph unicode="&#x20;" horiz-adv-x="512" d="" />
<glyph unicode="&#xe900;" glyph-name="remove" d="M512-64c-282.77 0-512 229.23-512 512s229.23 512 512 512c282.77 0 512-229.23 512-512v0c-0.33-282.637-229.363-511.67-511.968-512h-0.032zM512 896c-247.424 0-448-200.576-448-448s200.576-448 448-448c247.424 0 448 200.576 448 448v0c-0.272 247.314-200.686 447.728-447.974 448h-0.026zM736.017 415.983h-448c-17.673 0-32 14.327-32 32s14.327 32 32 32h448c17.227-0.58 30.972-14.685 30.972-32s-13.745-31.42-30.919-31.999l-0.053-0.001z" />
<glyph unicode="&#xe901;" glyph-name="add" d="M512-64c-282.77 0-512 229.23-512 512s229.23 512 512 512c282.77 0 512-229.23 512-512v0c-0.33-282.637-229.363-511.67-511.968-512h-0.032zM512 896c-247.424 0-448-200.576-448-448s200.576-448 448-448c247.424 0 448 200.576 448 448v0c-0.272 247.314-200.686 447.728-447.974 448h-0.026zM735.983 415.983h-447.966c-17.673 0-32 14.327-32 32s14.327 32 32 32h448c17.227-0.58 30.972-14.685 30.972-32s-13.745-31.42-30.919-31.999l-0.053-0.001zM512 192c-17.656 0.019-31.964 14.327-31.983 31.981v448.002c0.58 17.227 14.685 30.972 32 30.972s31.42-13.745 31.999-30.919l0.001-0.053v-448c-0.019-17.668-14.347-31.983-32.017-31.983v0z" />
<glyph unicode="&#xe902;" glyph-name="facebook" d="M1024 448c0 282.77-229.23 512-512 512s-512-229.23-512-512c0-282.77 229.23-512 512-512v0c2.993 0 6.007 0 9 0.195v398.401h-109.999v128.195h109.999v94.406c0 109.392 66.798 168.989 164.392 168.989 1.194 0.006 2.606 0.009 4.020 0.009 33.313 0 66.201-1.823 98.568-5.375l-3.996 0.356v-114.402h-67.231c-53.004 0-63.393-25.201-63.393-62.2v-81.61h127.002l-16.591-128.195h-110.39v-378.903c215.757 63.495 370.585 259.729 370.619 492.131v0.003z" />
<glyph unicode="&#xe903;" glyph-name="youtube" d="M448.217 352.076l166.539 95.924-166.539 95.924zM512 960c-282.77 0-512-229.23-512-512s229.23-512 512-512c282.77 0 512 229.23 512 512v0c-0.037 282.755-229.245 511.963-511.996 512h-0.004zM831.913 447.479c0.011-1.577 0.017-3.443 0.017-5.311 0-52.546-4.796-103.971-13.974-153.863l0.793 5.192c-7.652-27.509-28.879-48.736-55.823-56.253l-0.564-0.134c-50.077-13.186-250.361-13.186-250.361-13.186s-199.764 0-250.361 13.707c-27.509 7.652-48.736 28.879-56.253 55.823l-0.134 0.564c-8.4 44.64-13.204 95.994-13.204 148.471 0 1.938 0.007 3.875 0.020 5.81l-0.002-0.299c-0.010 1.557-0.016 3.397-0.016 5.24 0 52.571 4.804 104.020 13.996 153.932l-0.794-5.19c7.772 27.574 28.918 48.899 55.809 56.784l0.578 0.145c50.077 13.186 250.361 13.186 250.361 13.186s200.285 0 250.361-13.707c27.509-7.652 48.736-28.879 56.253-55.823l0.134-0.564c8.41-43.602 13.221-93.746 13.221-145.014 0-3.344-0.020-6.683-0.061-10.017l0.005 0.507z" />
<glyph unicode="&#xe904;" glyph-name="instagram" d="M609.984 448c0-54.127-43.879-98.006-98.006-98.006s-98.006 43.879-98.006 98.006c0 54.127 43.879 98.006 98.006 98.006 0.008 0 0.015 0 0.023 0h-0.001c54.118-0.012 97.984-43.886 97.984-98.006v0zM741.194 621.392c-10.109 25.719-30.083 45.693-55.142 55.573l-0.66 0.229c-16.199 6.186-34.928 9.872-54.487 10.105l-0.1 0.001c-31.013 1.41-40.295 1.713-118.804 1.713s-87.813-0.304-118.804-1.713c-19.663-0.242-38.39-3.936-55.706-10.5l1.118 0.372c-25.716-10.113-45.689-30.086-55.573-55.142l-0.23-0.66c-6.186-16.199-9.872-34.928-10.105-54.487l-0.001-0.1c-1.41-30.992-1.713-40.295-1.713-118.804s0.304-87.791 1.713-118.804c0.235-19.66 3.921-38.389 10.478-55.706l-0.372 1.119c10.109-25.719 30.083-45.693 55.142-55.573l0.66-0.229c16.197-6.196 34.925-9.89 54.485-10.127l0.102-0.001c30.992-1.41 40.295-1.713 118.804-1.713s87.813 0.304 118.804 1.713c19.662 0.238 38.39 3.932 55.704 10.5l-1.117-0.372c25.719 10.109 45.693 30.083 55.573 55.142l0.229 0.66c6.19 16.197 9.883 34.925 10.127 54.483l0.001 0.105c1.41 31.013 1.713 40.295 1.713 118.804s-0.304 87.813-1.713 118.804c-0.235 19.669-3.929 38.405-10.5 55.726l0.372-1.117zM512.043 297.033c-83.377 0-150.967 67.59-150.967 150.967s67.59 150.967 150.967 150.967c83.377 0 150.967-67.59 150.967-150.967v0c0-83.377-67.59-150.967-150.967-150.967v0zM668.975 569.667c-19.488 0-35.286 15.798-35.286 35.286s15.798 35.286 35.286 35.286c19.488 0 35.286-15.798 35.286-35.286v0c0-19.488-15.798-35.286-35.286-35.286-0.015 0-0.031 0-0.046 0h0.002zM512 960c-282.77 0-512-229.23-512-512s229.23-512 512-512c282.77 0 512 229.23 512 512v0c-0.037 282.755-229.245 511.963-511.996 512h-0.004zM804.218 326.723c-0.528-25.771-5.494-50.227-14.161-72.852l0.497 1.478c-15.612-39.612-46.38-70.38-84.973-85.636l-1.018-0.355c-21.139-8.164-45.587-13.129-71.125-13.659l-0.227-0.004c-31.36-1.431-41.358-1.778-121.212-1.778s-89.852 0.347-121.212 1.778c-25.765 0.534-50.213 5.499-72.831 14.161l1.479-0.498c-39.612 15.612-70.38 46.38-85.636 84.973l-0.355 1.018c-8.168 21.139-13.134 45.588-13.66 71.127l-0.004 0.225c-1.453 31.36-1.778 41.38-1.778 121.212s0.325 89.852 1.778 121.212c0.529 25.772 5.494 50.228 14.161 72.852l-0.498-1.478c15.621 39.606 46.386 70.371 84.973 85.636l1.018 0.355c21.146 8.165 45.602 13.131 71.147 13.659l0.226 0.004c31.36 1.431 41.358 1.778 121.212 1.778s89.852-0.347 121.212-1.778c25.77-0.526 50.226-5.484 72.854-14.139l-1.48 0.497c39.609-15.616 70.375-46.383 85.636-84.973l0.355-1.018c8.17-21.146 13.136-45.603 13.66-71.15l0.004-0.224c1.431-31.36 1.757-41.358 1.757-121.212s-0.347-89.787-1.8-121.212z" />
<glyph unicode="&#xe905;" glyph-name="twitter" d="M512 960c-282.77 0-512-229.23-512-512s229.23-512 512-512c282.77 0 512 229.23 512 512v0c-0.037 282.755-229.245 511.963-511.996 512h-0.004zM745.77 560.797q0.347-7.569 0.325-15.181c0.005-0.679 0.008-1.482 0.008-2.285 0-183.415-148.687-332.102-332.102-332.102-0.796 0-1.591 0.003-2.385 0.008l0.122-0.001c-0.096 0-0.211 0-0.325 0-66.793 0-128.988 19.686-181.1 53.573l1.288-0.785c8.356-1.036 18.027-1.627 27.837-1.627 0.072 0 0.144 0 0.216 0h-0.011c0.108 0 0.235 0 0.362 0 55.174 0 105.922 18.949 146.091 50.694l-0.496-0.378c-51.209 1.001-94.319 34.568-109.545 80.801l-0.237 0.831c6.675-1.351 14.349-2.124 22.203-2.124 10.982 0 21.612 1.512 31.691 4.338l-0.824-0.197c-54.15 11.224-94.268 58.528-94.276 115.203v0.001c0 0.521 0 0.998 0 1.496 15.341-8.707 33.589-14.083 53.039-14.7l0.183-0.005c-31.721 21.398-52.304 57.202-52.304 97.813 0 21.761 5.91 42.141 16.212 59.624l-0.3-0.55c58.21-71.223 144.326-117.745 241.417-122.762l0.811-0.033c-1.954 8.025-3.075 17.239-3.075 26.714 0 64.943 52.647 117.59 117.59 117.59 33.785 0 64.242-14.248 85.691-37.063l0.057-0.061c28.145 5.661 53.145 15.554 75.691 29.113l-1.065-0.594c-9.105-27.718-27.377-50.327-51.158-64.767l-0.524-0.295c25.053 3.054 47.856 9.597 68.985 19.184l-1.472-0.598c-16.082-23.873-35.534-44.043-57.944-60.405l-0.678-0.472z" />
<glyph unicode="&#xe906;" glyph-name="remove-bold" d="M512.096-32.186c-265.146 0-480.090 214.944-480.090 480.090s214.944 480.090 480.090 480.090c265.146 0 480.090-214.944 480.090-480.090v0c-0.255-265.044-215.046-479.835-480.066-480.090h-0.024zM512.096 868.015c-0.038 0-0.083 0-0.128 0-231.95 0-419.983-188.033-419.983-419.983s188.033-419.983 419.983-419.983c231.905 0 419.91 187.96 419.983 419.847v0.007c-0.182 231.858-188.017 419.783-419.823 420.111h-0.031zM512.096 868.015M721.991 418.010h-419.983c-0.414-0.020-0.898-0.032-1.386-0.032-16.58 0-30.022 13.441-30.022 30.022s13.441 30.022 30.022 30.022c0.487 0 0.972-0.012 1.454-0.035l-0.068 0.003h419.983c0.414 0.020 0.898 0.032 1.386 0.032 16.58 0 30.022-13.441 30.022-30.022s-13.441-30.022-30.022-30.022c-0.487 0-0.972 0.012-1.454 0.035l0.068-0.003zM721.991 418.010" />
<glyph unicode="&#xe907;" glyph-name="air-conditioner" d="M940.071 900.844h-849.487c-50.029 0-90.585-40.556-90.585-90.585v0-362.338c0-50.029 40.556-90.585 90.585-90.585v0h849.487c50.029 0 90.585 40.556 90.585 90.585v0 362.338c0 50.029-40.556 90.585-90.585 90.585v0zM847.439 417.831h-664.261v30.090c0.022 16.674 13.534 30.186 30.206 30.208h603.886c16.674-0.022 30.186-13.534 30.208-30.206v-0.002zM970.24 448.039c-0.022-16.674-13.534-30.186-30.206-30.208h-32.219v30.090c0 50.029-40.556 90.585-90.585 90.585h-603.845c-50.029 0-90.585-40.556-90.585-90.585v0-30.208h-32.217c-16.674 0.022-30.186 13.534-30.208 30.206v362.34c0.022 16.674 13.534 30.186 30.206 30.208h849.489c16.674-0.022 30.186-13.534 30.208-30.206v-0.002zM889.462 753.231c0-16.314-13.225-29.538-29.538-29.538s-29.538 13.225-29.538 29.538c0 16.314 13.225 29.538 29.538 29.538s29.538-13.225 29.538-29.538zM771.308 753.231c0-16.314-13.225-29.538-29.538-29.538s-29.538 13.225-29.538 29.538c0 16.314 13.225 29.538 29.538 29.538s29.538-13.225 29.538-29.538zM515.348 256.709c-16.683 0-30.208-13.525-30.208-30.208v0-201.295c0.604-16.208 13.888-29.117 30.188-29.117s29.585 12.91 30.187 29.063l0.002 0.055v201.295c0 16.67-13.502 30.186-30.166 30.208h-0.002zM726.528 235.244c-3.857 12.551-15.347 21.518-28.931 21.518-3.096 0-6.083-0.466-8.895-1.331l0.214 0.057c-12.551-3.857-21.518-15.347-21.518-28.931 0-3.096 0.466-6.083 1.331-8.895l-0.057 0.214 60.377-201.295c3.857-12.551 15.347-21.518 28.931-21.518 3.096 0 6.083 0.466 8.895 1.331l-0.214-0.057c12.551 3.857 21.518 15.347 21.518 28.931 0 3.096-0.466 6.083-1.331 8.895l0.057-0.214zM905.531 242.097c-5.293 9.206-15.072 15.305-26.276 15.305-16.683 0-30.208-13.525-30.208-30.208 0-6 1.749-11.591 4.765-16.292l120.721-201.175c5.293-9.206 15.072-15.305 26.276-15.305 16.683 0 30.208 13.525 30.208 30.208 0 6-1.749 11.591-4.765 16.292l0.072-0.12zM341.819 255.488c-2.598 0.809-5.585 1.274-8.681 1.274-13.584 0-25.074-8.967-28.874-21.304l-0.057-0.214-60.377-201.295c-0.809-2.598-1.274-5.585-1.274-8.681 0-13.584 8.967-25.074 21.304-28.874l0.214-0.057c2.598-0.809 5.585-1.274 8.681-1.274 13.584 0 25.074 8.967 28.874 21.304l0.057 0.214 60.377 201.295c0.809 2.598 1.274 5.585 1.274 8.681 0 13.584-8.967 25.074-21.304 28.874l-0.214 0.057zM166.518 252.652c-4.434 2.701-9.798 4.3-15.534 4.3-10.94 0-20.522-5.816-25.823-14.525l-0.075-0.134-120.753-201.492c-2.944-4.58-4.693-10.171-4.693-16.171 0-16.683 13.525-30.208 30.208-30.208 11.204 0 20.983 6.099 26.198 15.158l0.078 0.147 120.793 201.295c2.749 4.464 4.377 9.873 4.377 15.662 0 10.988-5.867 20.606-14.639 25.892l-0.136 0.076zM354.304 780.052h-201.295c-16.208-0.604-29.117-13.888-29.117-30.188s12.91-29.585 29.063-30.187l0.055-0.002h201.295c16.208 0.604 29.117 13.888 29.117 30.188s-12.91 29.585-29.063 30.187l-0.055 0.002z" />
<glyph unicode="&#xe908;" glyph-name="area" d="M994.705 156.694c18.059-18.11 29.226-43.101 29.226-70.701s-11.166-52.591-29.228-70.703l0.002 0.002-68.608-67.762c-7.355-8.050-17.899-13.081-29.617-13.081-22.13 0-40.070 17.94-40.070 40.070 0 11.896 5.184 22.581 13.416 29.92l0.040 0.035 40.070 39.535h-641.914c-88.311 0.152-159.859 71.701-160.011 159.997v642.909l-40.070-39.357c-6.878-5.721-15.803-9.193-25.539-9.193-22.13 0-40.070 17.94-40.070 40.070 0 9.958 3.633 19.068 9.645 26.076l-0.045-0.054 67.539 66.694c18.163 17.796 43.060 28.779 70.522 28.779s52.36-10.983 70.539-28.795l-0.017 0.017 67.584-66.783c6.17-7.013 9.935-16.271 9.935-26.409 0-22.13-17.94-40.070-40.070-40.070-9.972 0-19.092 3.642-26.105 9.669l0.053-0.045-43.898 43.32v-646.812c0-44.26 35.88-80.139 80.139-80.139v0h645.832l-44.077 43.542c-8.147 7.364-13.244 17.969-13.244 29.766 0 22.13 17.94 40.070 40.070 40.070 11.586 0 22.023-4.917 29.339-12.778l0.023-0.024 68.43-67.584zM903.836 960h-517.832c-22.13 0-40.070-17.94-40.070-40.070s17.94-40.070 40.070-40.070v0h517.832c22.13 0 40.070-17.94 40.070-40.070v0-520.014c0-22.13 17.94-40.070 40.070-40.070s40.070 17.94 40.070 40.070v520.014c0 66.389-53.819 120.209-120.209 120.209v0zM587.731 274.365c22.13 0 40.070 17.94 40.070 40.070v0 178.087c-0.057 60.667-49.25 109.825-109.924 109.825-26.716 0-51.206-9.531-70.256-25.378l0.179 0.145c-18.854 15.686-43.322 25.207-70.013 25.207-15.545 0-30.335-3.229-43.737-9.053l0.71 0.275c-7.056 6.333-16.433 10.205-26.715 10.205-21.992 0-39.847-17.718-40.067-39.658v-250.1c0-22.13 17.94-40.070 40.070-40.070s40.070 17.94 40.070 40.070v0 178.087c0 16.573 13.435 30.008 30.008 30.008s30.008-13.435 30.008-30.008v-178.087c0-22.13 17.94-40.070 40.070-40.070s40.070 17.94 40.070 40.070v0 178.087c0 16.573 13.435 30.008 30.008 30.008s30.008-13.435 30.008-30.008v0-178.087c0.249-21.814 17.892-39.426 39.694-39.624h0.019zM769.514 743.981h-1.247c-50.954-0.101-92.224-41.418-92.249-92.38v-0.002c0-22.13 17.94-40.070 40.070-40.070s40.070 17.94 40.070 40.070v0c0.049 6.769 5.485 12.253 12.232 12.377h1.259c6.476-0.101 11.748-5.125 12.241-11.488l0.003-0.043c-11.189-24.734-26.438-45.741-45.115-63.111l-0.119-0.11c-23.775-26.134-47.149-47.416-47.371-47.638-8.016-7.352-13.022-17.873-13.022-29.564 0-22.012 17.75-39.879 39.717-40.068h108.028c22.13 0 40.070 17.94 40.070 40.070s-17.94 40.070-40.070 40.070h-13.668c27.209 25.629 45.867 60.067 51.406 98.738l0.106 0.902c-0.101 50.938-41.393 92.198-92.333 92.249h-0.005z" />
<glyph unicode="&#xe909;" glyph-name="add-bold" d="M512.096-32.186c-265.146 0-480.090 214.944-480.090 480.090s214.944 480.090 480.090 480.090c265.146 0 480.090-214.944 480.090-480.090v0c-0.255-265.044-215.046-479.835-480.066-480.090h-0.024zM512.096 868.015c-0.038 0-0.083 0-0.128 0-231.95 0-419.983-188.033-419.983-419.983s188.033-419.983 419.983-419.983c231.905 0 419.91 187.96 419.983 419.847v0.007c-0.182 231.858-188.017 419.783-419.823 420.111h-0.031zM512.096 868.015M721.991 418.010h-419.983c-0.414-0.020-0.898-0.032-1.386-0.032-16.58 0-30.022 13.441-30.022 30.022s13.441 30.022 30.022 30.022c0.487 0 0.972-0.012 1.454-0.035l-0.068 0.003h419.983c0.414 0.020 0.898 0.032 1.386 0.032 16.58 0 30.022-13.441 30.022-30.022s-13.441-30.022-30.022-30.022c-0.487 0-0.972 0.012-1.454 0.035l0.068-0.003zM721.991 418.010M512.032 207.923c-16.58 0-30.022 13.441-30.022 30.022v0 419.983c-0.020 0.414-0.032 0.898-0.032 1.386 0 16.58 13.441 30.022 30.022 30.022s30.022-13.441 30.022-30.022c0-0.487-0.012-0.972-0.035-1.454l0.003 0.068v-419.983c0 0 0 0 0 0 0-16.558-13.405-29.985-29.954-30.022h-0.003zM512.032 207.923" />
<glyph unicode="&#xe90a;" glyph-name="bathtub" d="M1003.52 499.036h-766.976v287.539c-0.013 0.509-0.020 1.109-0.020 1.71 0 39.429 31.964 71.393 71.393 71.393s71.393-31.964 71.393-71.393c0-0.601-0.007-1.201-0.022-1.798l0.002 0.089v-83.599c1.939-20.991 19.463-37.3 40.796-37.3s38.857 16.309 40.784 37.139l0.012 0.161v83.599c0 84.469-68.476 152.945-152.945 152.945s-152.945-68.476-152.945-152.945v0-287.539h-114.033c-22.622 0-40.96-18.338-40.96-40.96v0-285.491c0.093-67.533 54.814-122.254 122.339-122.348h32.777v-32.768c-0.104-1.097-0.164-2.371-0.164-3.66 0-22.622 18.338-40.96 40.96-40.96s40.96 18.338 40.96 40.96c0 1.289-0.059 2.563-0.176 3.821l0.012-0.161v32.768h570.86v-32.768c-0.104-1.097-0.164-2.371-0.164-3.66 0-22.622 18.338-40.96 40.96-40.96s40.96 18.338 40.96 40.96c0 1.289-0.059 2.563-0.176 3.821l0.012-0.161v32.768h32.768c67.533 0.093 122.254 54.814 122.348 122.339v285.664c-0.093 22.479-18.279 40.68-40.744 40.796h-0.011zM962.56 172.749c0-22.622-18.338-40.96-40.96-40.96v0h-799.252c-22.622 0-40.96 18.338-40.96 40.96v0 244.695h881.173z" />
<glyph unicode="&#xe90b;" glyph-name="bed" d="M928.991 484.953v228.040c-0.051 50.337-40.843 91.13-91.176 91.181h-651.625c-50.337-0.051-91.13-40.843-91.181-91.176v-228.045c-55.169-15.691-94.911-65.588-95.009-124.783v-173.29c0-16.794 13.614-30.408 30.408-30.408v0h64.601v-54.673c0-16.794 13.614-30.408 30.408-30.408s30.408 13.614 30.408 30.408v0 54.673h712.348v-54.673c0-16.794 13.614-30.408 30.408-30.408s30.408 13.614 30.408 30.408v0 54.673h64.601c16.794 0 30.408 13.614 30.408 30.408v0 173.279c-0.098 59.206-39.84 109.104-94.094 124.571l-0.915 0.223zM155.826 712.993c0.025 16.759 13.605 30.338 30.361 30.364h651.622c16.759-0.025 30.338-13.605 30.364-30.361v-223.323h-71.235v60.995c-0.076 53.106-43.106 96.136-96.204 96.211h-122.887c-0.020 0-0.043 0-0.066 0-25.49 0-48.656-9.95-65.827-26.177l0.046 0.043c-17.125 16.185-40.291 26.134-65.782 26.134-0.023 0-0.046 0-0.070 0h-122.876c-53.106-0.076-96.136-43.106-96.211-96.204v-61.002h-71.235zM736.167 550.667v-60.995h-193.759v60.995c0 19.671 15.946 35.617 35.617 35.617v0h122.88c19.517-0.201 35.261-16.070 35.261-35.616 0-0.001 0-0.001 0-0.002v0zM481.592 550.667v-60.995h-193.759v60.995c0 19.671 15.946 35.617 35.617 35.617h122.88c19.517-0.201 35.261-16.070 35.261-35.616 0-0.001 0-0.001 0-0.002v0zM963.183 217.244h-902.367v142.915c0.051 37.92 30.777 68.646 68.692 68.697h764.978c37.92-0.051 68.646-30.777 68.697-68.692v-142.875z" />
<glyph unicode="&#xe90c;" glyph-name="bus" d="M988.071 960h-287.432c-19.823-0.051-35.879-16.106-35.929-35.924v-287.437c0.051-19.823 16.106-35.879 35.924-35.929h125.779v-108.188c-0.294 0.041-0.634 0.065-0.979 0.065s-0.685-0.024-1.018-0.070l0.039 0.004h-806.645c-9.835 0-17.809-7.973-17.809-17.809v-377.277h35.929c9.922 0 17.965-8.043 17.965-17.965s-8.043-17.965-17.965-17.965h-35.929v-17.809c0-9.835 7.973-17.809 17.809-17.809v0h55.652c8.862 51.282 53.015 89.796 106.162 89.796s97.3-38.514 106.070-89.154l0.092-0.642h416.412c8.862 51.282 53.015 89.796 106.162 89.796s97.3-38.514 106.070-89.154l0.092-0.642h73.461c9.835 0 17.809 7.973 17.809 17.809v0 17.809h-53.871c-9.922 0-17.965 8.043-17.965 17.965s8.043 17.965 17.965 17.965h54.272v115.757c-0.010 3.528-1.020 6.818-2.761 9.605l0.045-0.077-141.178 225.28v152.71h125.774c19.823 0.051 35.879 16.106 35.929 35.924v287.437c-0.051 19.823-16.106 35.879-35.924 35.929h-0.005zM359.29 421.064c0.051 19.823 16.106 35.879 35.924 35.929h143.721c19.823-0.051 35.879-16.106 35.929-35.924v-107.792c-0.051-19.823-16.106-35.879-35.924-35.929h-143.721c-19.823 0.051-35.879 16.106-35.929 35.924v0.005zM503.096 205.49c0-9.835-7.973-17.809-17.809-17.809h-35.929c-9.922 0-17.965 8.043-17.965 17.965s8.043 17.965 17.965 17.965h35.929c0.001 0 0.002 0 0.003 0 9.835 0 17.809-7.973 17.809-17.809 0-0.11-0.001-0.219-0.003-0.328v0.016zM197.677 187.681h-35.974c-9.922 0-17.965 8.043-17.965 17.965s8.043 17.965 17.965 17.965h35.929c9.922 0 17.965-8.043 17.965-17.965s-8.043-17.965-17.965-17.965v0zM287.521 313.455c-0.051-19.823-16.106-35.879-35.924-35.929h-143.81c-19.823 0.051-35.879 16.106-35.929 35.924v107.614c0.051 19.823 16.106 35.879 35.924 35.929h143.721c19.823-0.051 35.879-16.106 35.929-35.924v-0.005zM664.799 61.952h-341.437c-9.922 0-17.965 8.043-17.965 17.965s8.043 17.965 17.965 17.965h341.348c9.922 0 17.965-8.043 17.965-17.965s-8.043-17.965-17.965-17.965v0zM772.586 187.726h-35.929c-9.922 0-17.965 8.043-17.965 17.965s8.043 17.965 17.965 17.965h35.929c9.922 0 17.965-8.043 17.965-17.965s-8.043-17.965-17.965-17.965v0zM913.631 305.041c1.633-2.668 2.599-5.897 2.599-9.351 0-9.92-7.971-17.978-17.857-18.118h-197.734c-19.823 0.051-35.879 16.106-35.929 35.924v107.57c0.051 19.823 16.106 35.879 35.924 35.929h107.792c6.4-0.030 12.014-3.366 15.227-8.386l0.044-0.073 2.716-4.452 14.202-22.795zM948.313 733.295c-3.29-4.164-8.34-6.812-14.008-6.812-0.006 0-0.012 0-0.017 0h0.001c-0.036 0-0.078 0-0.121 0-4.197 0-8.044 1.497-11.038 3.986l0.028-0.023-60.861 48.484v-80.851l12.778-12.778c3.264-3.264 5.283-7.774 5.283-12.755 0-9.963-8.076-18.039-18.039-18.039-4.981 0-9.491 2.019-12.755 5.283v0l-5.209 5.209-5.209-5.209c-3.264-3.264-7.774-5.283-12.755-5.283-9.963 0-18.039 8.076-18.039 18.039 0 4.981 2.019 9.491 5.283 12.755v0l12.778 12.555v81.074l-60.639-48.529c-2.965-2.466-6.812-3.963-11.009-3.963-0.043 0-0.085 0-0.128 0h0.007c-0.005 0-0.011 0-0.017 0-5.668 0-10.718 2.648-13.979 6.774l-0.029 0.037c-2.441 3.023-3.919 6.912-3.919 11.146 0 5.669 2.649 10.719 6.776 13.98l0.037 0.029 82.989 66.471v63.265c0 9.922 8.043 17.965 17.965 17.965s17.965-8.043 17.965-17.965v-63.221l82.989-66.471c4.165-3.29 6.813-8.34 6.813-14.009 0-4.234-1.478-8.123-3.946-11.18l0.026 0.034zM880.284 7.858c0-39.686-32.172-71.858-71.858-71.858s-71.858 32.172-71.858 71.858c0 39.686 32.172 71.858 71.858 71.858s71.858-32.172 71.858-71.858zM395.219 421.064h143.716v-107.787h-143.716v107.787zM251.503 7.858c0-39.686-32.172-71.858-71.858-71.858s-71.858 32.172-71.858 71.858c0 39.686 32.172 71.858 71.858 71.858s71.858-32.172 71.858-71.858zM700.639 421.064v-108.010h165.22l-67.361 107.787zM107.787 421.064h143.716v-107.787h-143.716v107.787z" />
<glyph unicode="&#xe90d;" glyph-name="cocktail" d="M480.092 390.492v-334.479h60.006v334.029l202.998 209.265h-456.008zM166.543 761.057c-1.712-4.117-2.707-8.899-2.707-13.913 0-10.14 4.067-19.33 10.658-26.028l-0.005 0.005 57.098-61.809h321.004l24.576 125.133h-376.013c-0.047 0-0.103 0-0.159 0-15.546 0-28.857-9.57-34.363-23.14l-0.089-0.248zM869.376 760.648c-5.415 14.051-18.807 23.84-34.487 23.84-0.101 0-0.203 0-0.304-0.001h-196.182l-24.576-125.133h187.515l59.351 61.153c6.96 6.715 11.283 16.125 11.283 26.544 0 4.896-0.955 9.57-2.688 13.844l0.089-0.247zM698.368-3.994h-376.832c-16.57 0-30.003-13.433-30.003-30.003s13.433-30.003 30.003-30.003h376.832c16.57 0 30.003 13.433 30.003 30.003s-13.433 30.003-30.003 30.003v0zM805.069 902.615c10.281 4.901 17.259 15.21 17.259 27.149 0 16.559-13.424 29.983-29.983 29.983-4.144 0-8.091-0.841-11.681-2.36l0.197 0.074-171.254-75.325c-8.402-3.744-14.656-11.006-16.953-19.863l-0.046-0.208-15.36-77.824h61.153l9.708 49.152z" />
<glyph unicode="&#xe90e;" glyph-name="room-service" d="M347.492 442.346c0.668 10.952 1.336 21.905 2.76 32.991 3.641 30.263 8.625 56.852 15.164 82.823l-0.962-4.51c3.562 12.778 7.391 25.422 11.442 37.799 5.165 12.065 10.195 24.042 15.226 35.617 11.38 23.758 24.489 44.231 39.746 62.877l-0.434-0.547 10.685 13.357c4.007 4.007 8.014 7.88 11.843 11.754 7.253 7.324 14.859 14.253 22.808 20.777l0.521 0.415c13.221 10.803 27.987 20.884 43.59 29.65l1.555 0.803c10.422 6.421 22.587 12.63 35.251 17.879l1.747 0.642c21.326 8.593 33.391 12.867 33.391 12.867s-10.329-8.192-28.36-21.459c-11.516-8.592-21.598-16.951-31.242-25.781l0.299 0.27c-13.030-11.43-24.941-23.060-36.21-35.29l-0.298-0.327c-6.589-6.589-11.709-14.826-17.809-22.261q-4.452-5.832-9.35-11.754c-2.582-4.452-5.298-8.904-8.014-13.357-10.456-16.459-20.324-35.495-28.523-55.394l-0.906-2.484q-5.565-16.117-11.309-32.679c-2.627-11.442-5.521-23.018-8.904-34.549-4.661-20.094-8.696-44.891-11.229-70.131l-0.213-2.617c-1.425-8.904-2.093-18.12-2.938-27.247 197.498 0 350.386 0 564.313 0 0.712 9.394 1.113 18.877 1.113 28.405 0.023 1.484 0.036 3.235 0.036 4.989 0 175.014-129.832 319.704-298.435 343.010l-1.811 0.205c10.957 10.236 17.786 24.771 17.786 40.901 0 30.883-25.036 55.919-55.919 55.919s-55.919-25.036-55.919-55.919c0-16.13 6.829-30.665 17.754-40.871l0.032-0.030c-170.39-23.511-300.202-168.181-300.202-343.171 0-1.77 0.013-3.537 0.040-5.301l-0.003 0.267c0-9.528 0.356-18.877 1.024-28.227zM224.122 421.465h799.878v-70.567h-799.878v70.567zM695.652 300.856c-40.648-19.768-182.539-70.879-182.539-70.879l-167.58 10.507s95.855 26.713 132.986 34.994c12.53 1.683 22.090 12.307 22.090 25.164 0 12.699-9.327 23.219-21.504 25.084l-0.141 0.018c-20.569 0-199.903-7.391-199.903-7.391l-119.096-42.874 31.521-199.457s24.531 41.984 48.974 41.984 237.167-5.654 266.017 0c87.747 47.294 161.562 93.706 232.117 144.369l-6.303-4.304c21.148 14.069 4.141 62.553-36.641 42.785zM0 253.974v-258.582l182.539 34.148-45.635 248.476z" />
<glyph unicode="&#xe90f;" glyph-name="restaurant" d="M415.089 960c-16.559 0-29.983-13.424-29.983-29.983v0-250.921c0-4.14-3.356-7.496-7.496-7.496v0h-32.768v258.417c-0.023 16.564-13.456 29.983-30.024 29.983 0 0 0 0 0 0v0c-16.559 0-29.983-13.424-29.983-29.983v0-258.417h-32.768c-4.14 0-7.496 3.356-7.496 7.496v0 250.921c0 0 0 0.001 0 0.001 0 16.559-13.424 29.983-29.983 29.983-0.101 0-0.201 0-0.302-0.001h0.015c-16.559 0-29.983-13.424-29.983-29.983v0-250.921c0.023-37.271 30.231-67.479 67.5-67.502h32.77v-140.739c-35.191-12.796-59.874-45.949-59.884-84.868v-359.876c0-49.767 40.345-90.112 90.112-90.112v0c49.767 0 90.112 40.345 90.112 90.112v0 359.875c-0.061 38.996-24.884 72.179-59.583 84.672l-0.628 0.198v140.739h32.768c0.024 0 0.053 0 0.082 0 37.289 0 67.52 30.217 67.543 67.5v250.923c-0.023 16.564-13.456 29.983-30.024 29.983 0 0 0 0 0 0v0zM794.747 667.546c21.265 33.682 33.884 74.667 33.884 118.6s-12.619 84.918-34.43 119.528l0.546-0.929c-18.768 33.212-53.841 55.266-94.065 55.266s-75.296-22.054-93.786-54.73l-0.279-0.536c-21.265-33.682-33.884-74.667-33.884-118.6s12.619-84.918 34.43-119.528l-0.546 0.929c15.086-23.297 37.144-40.96 63.191-50.194l0.87-0.269v-146.227c-35.242-12.756-59.977-45.92-60.006-84.866v-360.001c0-49.767 40.345-90.112 90.112-90.112v0c49.767 0 90.112 40.345 90.112 90.112v0 359.997c-0.029 38.949-24.764 72.113-59.379 84.67l-0.627 0.199v146.227c26.839 9.537 48.824 27.193 63.561 49.976l0.295 0.487z" />
<glyph unicode="&#xe910;" glyph-name="door" d="M321.35 816.268h359.284v-179.665h-359.284zM314.787 401.455c0 0-10.42 0-23.273 0s-23.273 0-23.273 0c0 0 10.42 0 23.273 0s23.273 0 23.273 0zM842.333 43.799v916.201h-682.682v-916.201h17.967v880.268c0 9.923 8.044 17.967 17.967 17.967v0h610.816c9.923 0 17.967-8.044 17.967-17.967v0-880.268zM69.818 7.866h862.301v-71.866h-862.301zM834.979 43.799v908.847h-667.974v-908.847zM285.417 834.234c0 9.923 8.044 17.967 17.967 17.967v0h395.217c9.923 0 17.967-8.044 17.967-17.967v0-215.599c0-9.923-8.044-17.967-17.967-17.967h-395.217c-9.923 0-17.967 8.044-17.967 17.967v0zM303.383 456.983c29.768 0 53.9-24.132 53.9-53.9s-24.132-53.9-53.9-53.9c-29.768 0-53.9 24.132-53.9 53.9v0c0 29.768 24.132 53.9 53.9 53.9v0z" />
<glyph unicode="&#xe911;" glyph-name="restaurant-bold" d="M42.652 960c-23.546-0.025-42.627-19.106-42.652-42.649v-256.002c0.076-70.662 57.338-127.924 127.993-128h42.659v-554.696c0-23.568 19.106-42.674 42.674-42.674s42.674 19.106 42.674 42.674v0 554.696h42.652c70.662 0.076 127.924 57.338 128 127.993v256.007c0 23.568-19.106 42.674-42.674 42.674s-42.674-19.106-42.674-42.674v0-256c-0.025-23.546-19.106-42.627-42.649-42.652h-42.654v213.304c0 23.568-19.106 42.674-42.674 42.674s-42.674-19.106-42.674-42.674v0-213.348h-42.652c-23.546 0.025-42.627 19.106-42.652 42.649v256.047c-0.025 23.561-19.131 42.652-42.696 42.652v0zM810.696-64c23.546 0.025 42.627 19.106 42.652 42.649v494.995c97.992 20.682 170.506 106.366 170.652 209.014v0.016c0 111.661-89.578 277.326-213.348 277.326s-213.304-165.665-213.304-277.326c0.145-102.663 72.66-188.348 169.256-208.782l1.396-0.247v-494.993c0.025-23.561 19.131-42.652 42.696-42.652v0zM682.696 682.674c0 79.293 66.204 191.978 128 191.978s128-112.685 128-191.978c0-70.692-57.308-128-128-128s-128 57.308-128 128v0z" />
<glyph unicode="&#xe912;" glyph-name="menu" d="M31.999 640h959.999c17.665 0 31.999 14.337 31.999 31.999 0 17.665-14.337 31.999-31.999 31.999h-959.999c-17.665 0-31.999-14.337-31.999-31.999s14.337-31.999 31.999-31.999zM991.998 479.999h-959.999c-17.665 0-31.999-14.337-31.999-31.999s14.337-31.999 31.999-31.999h959.999c17.665 0 31.999 14.337 31.999 31.999s-14.334 31.999-31.999 31.999zM991.998 256h-639.999c-17.665 0-31.999-14.337-31.999-31.999 0-17.665 14.337-31.999 31.999-31.999h639.999c17.665 0 31.999 14.337 31.999 31.999 0.003 17.665-14.334 31.999-31.999 31.999z" />
<glyph unicode="&#xe913;" glyph-name="close" d="M605.814 447.162l398.725 398.737c25.948 25.936 25.948 67.871 0 93.808-25.936 25.936-67.871 25.936-93.808 0l-398.737-398.737-398.725 398.737c-25.948 25.936-67.871 25.936-93.808 0-25.948-25.936-25.948-67.871 0-93.808l398.725-398.737-398.725-398.737c-25.948-25.936-25.948-67.871 0-93.808 12.926-12.938 29.921-19.437 46.904-19.437s33.966 6.499 46.904 19.437l398.725 398.737 398.737-398.737c12.938-12.938 29.921-19.437 46.904-19.437s33.966 6.499 46.904 19.437c25.948 25.936 25.948 67.871 0 93.808z" />
<glyph unicode="&#xe92f;" glyph-name="down-arrow" d="M981.824 633.6l-453.184-453.504c-8.081-7.956-19.179-12.869-31.424-12.869s-23.343 4.913-31.43 12.875l0.006-0.006-452.992 453.504c-7.911 7.968-12.801 18.946-12.801 31.066 0 0.103 0 0.207 0.001 0.31v-0.016c-0.001 0.095-0.001 0.208-0.001 0.32 0 12.112 4.89 23.081 12.803 31.042l26.558 26.558c7.949 7.911 18.91 12.801 31.013 12.801 0.122 0 0.244 0 0.365-0.001h-0.019c0.103 0.001 0.225 0.001 0.347 0.001 12.103 0 23.064-4.89 31.015-12.803l-0.002 0.002 395.136-395.648 395.392 395.968c7.949 7.911 18.91 12.801 31.013 12.801 0.122 0 0.244 0 0.365-0.001h-0.019c0.084 0.001 0.184 0.001 0.283 0.001 12.103 0 23.064-4.89 31.015-12.803l26.558-26.558c8.013-8.091 12.964-19.227 12.964-31.52s-4.951-23.429-12.968-31.524l0.004 0.004z" />
<glyph unicode="&#xe930;" glyph-name="inma-logo" d="M9.918 634.397h-9.947v135.431h9.947zM155.338 769.829v-135.431h-4.623c-0.048-0.002-0.105-0.003-0.162-0.003-0.695 0-1.351 0.161-1.936 0.447l0.026-0.011c-0.644 0.375-1.176 0.872-1.581 1.464l-0.011 0.017-88.503 117.538q0.287-2.873 0.287-5.459v-113.992h-8.672v135.431h4.909c0.071 0.004 0.155 0.006 0.239 0.006 0.659 0 1.289-0.127 1.866-0.357l-0.034 0.012c0.647-0.37 1.18-0.869 1.581-1.464l0.011-0.017 88.31-117.251c-0.178 1.631-0.282 3.527-0.287 5.447v113.624zM330.22 769.829v-135.431h-8.572v115.425c0.006 1.862 0.11 3.693 0.307 5.495l-0.020-0.229-53.64-94.659c-0.674-1.478-2.139-2.487-3.839-2.487-0.004 0-0.008 0-0.011 0h-1.515c-0.005 0-0.012 0-0.018 0-1.698 0-3.161 1.009-3.821 2.461l-0.011 0.026-55.085 94.852q0.287-2.873 0.287-5.459v-115.425h-8.666v135.431h6.84c0.069 0.003 0.151 0.004 0.232 0.004 0.674 0 1.322-0.106 1.93-0.303l-0.044 0.012c0.665-0.342 1.194-0.869 1.53-1.514l0.009-0.019 55.003-94.208c0.884-1.605 1.73-3.5 2.421-5.468l0.083-0.272q0.585 1.533 1.252 3.013t1.445 2.826l53.447 94.085c0.35 0.676 0.9 1.207 1.571 1.524l0.021 0.009c0.583 0.184 1.254 0.29 1.95 0.29 0.076 0 0.151-0.001 0.226-0.004h-0.011zM474.1 634.397h-7.607c-0.042-0.002-0.091-0.003-0.14-0.003-0.788 0-1.512 0.272-2.084 0.728l0.007-0.005c-0.585 0.496-1.044 1.122-1.334 1.835l-0.011 0.032-15.986 39.339h-66.934l-15.986-39.339c-0.281-0.739-0.744-1.355-1.336-1.813l-0.009-0.007c-0.605-0.479-1.378-0.768-2.22-0.768-0.032 0-0.064 0-0.096 0.001h-7.508l55.758 135.431h9.725zM443.96 683.596l-27.736 68.462c-0.941 2.148-1.892 4.82-2.675 7.563l-0.116 0.477q-0.585-2.3-1.252-4.353c-0.506-1.559-0.996-2.81-1.546-4.028l0.1 0.248-27.736-68.339zM600.357 634.397h-7.607c-0.040-0.002-0.087-0.003-0.135-0.003-0.788 0-1.512 0.272-2.084 0.728l0.007-0.005c-0.587 0.496-1.048 1.122-1.34 1.835l-0.011 0.032-15.986 39.339h-66.934l-15.986-39.339c-0.282-0.74-0.748-1.356-1.342-1.813l-0.010-0.007c-0.605-0.479-1.378-0.768-2.22-0.768-0.032 0-0.064 0-0.096 0.001h-7.508l55.758 135.431h9.725zM570.21 683.596l-27.736 68.462c-0.939 2.146-1.89 4.818-2.674 7.56l-0.117 0.479q-0.585-2.3-1.252-4.353c-0.506-1.559-0.996-2.81-1.546-4.028l0.1 0.248-27.736-68.339zM901.009 126.177q-8.561 11.802-17.753 23.066-9.093 11.34-18.619 22.3c-12.692 14.629-25.711 28.9-39.322 42.587-26.465 27.052-54.555 52.208-84.23 75.431l-1.862 1.404c-57.13 45.654-123.724 82.552-195.988 107.204l-4.622 1.37c-14.111 4.837-32.587 9.912-51.419 14.040l-3.708 0.682c-15.156 3.367-34.373 6.459-53.886 8.559l-2.498 0.218c-16.601 1.764-35.862 2.77-55.359 2.77-0.599 0-1.198-0.001-1.797-0.003h0.093l-14.307-0.217c-4.769-0.129-9.526-0.48-14.301-0.679l-7.156-0.345-7.139-0.585c-4.757-0.427-9.526-0.767-14.283-1.264-9.479-1.241-19.023-2.124-28.461-3.768-4.722-0.778-9.485-1.393-14.19-2.311l-14.137-2.686c-4.734-0.807-9.397-1.96-14.084-3.002s-9.362-2.054-14.043-3.242l-13.95-3.681c-2.341-0.626-4.681-1.205-6.981-1.867l-6.922-2.071c-43.41-12.902-79.52-26.547-114.42-42.392l5.554 2.257c29.927 17.944 64.742 34.772 101.085 48.484l4.545 1.504c32.601 12.465 70.961 22.661 110.652 28.839l3.264 0.418c16.994 2.607 37.326 4.495 57.951 5.239l0.961 0.027 3.698 0.17 11.112 0.099 7.414 0.047c2.469 0 4.939-0.135 7.408-0.193 4.939-0.181 9.883-0.275 14.816-0.532l14.798-1.024c22.532-1.977 42.611-4.901 62.314-8.866l-3.56 0.598c62.44-13.097 117.812-34.955 168.069-64.568l-2.573 1.402c36.527-21.169 68.067-43.573 97.363-68.531l-0.914 0.76c7.519-6.308 14.845-12.832 22.089-19.438 3.616-3.312 7.162-6.694 10.743-10.035s7.022-6.846 10.503-10.275q20.749-20.802 39.942-42.979 9.509-11.153 18.602-22.633c6.068-7.642 12.007-15.383 17.689-23.312 10.392-13.96 20.911-29.952 30.517-46.539l1.303-2.438zM985.749 271.995l-76.747-82.452-76.747 82.452c-19.719 21.705-31.791 50.666-31.791 82.447s12.072 60.742 31.882 82.548l-0.091-0.101c18.987 21.007 46.334 34.151 76.75 34.151s57.764-13.144 76.671-34.062l0.080-0.090c19.717-21.704 31.788-50.664 31.788-82.443 0-31.782-12.074-60.745-31.884-82.551l0.090 0.101zM954.362 356.659c0 26.917-20.31 48.731-45.36 48.731s-45.36-21.814-45.36-48.731 20.31-48.731 45.36-48.731 45.36 21.814 45.36 48.731zM142.57 464.571l-56.232-57.28-56.232 57.28c-14.406 14.774-23.292 34.989-23.292 57.28s8.886 42.506 23.308 57.297l-0.017-0.017c14.274 14.643 34.193 23.725 56.232 23.725s41.958-9.082 56.216-23.708l0.016-0.017c14.406-14.774 23.292-34.989 23.292-57.28s-8.886-42.506-23.308-57.297l0.017 0.017zM119.574 523.39c-0.342 18.095-15.091 32.633-33.236 32.633-18.359 0-33.242-14.883-33.242-33.242s14.883-33.242 33.242-33.242c0 0 0 0 0 0v0c18.394 0.175 33.237 15.126 33.237 33.545 0 0.099 0 0.198-0.001 0.297v-0.015zM628.227 664.257h-5.723v10.451h5.723v12.78c-0.014 0.258-0.021 0.559-0.021 0.863 0 4.208 1.481 8.070 3.949 11.094l-0.025-0.032c2.533 2.787 6.172 4.529 10.218 4.529 0.281 0 0.561-0.008 0.838-0.025l-0.038 0.002c1.772-0.020 3.473-0.294 5.077-0.788l-0.127 0.034c1.746-0.492 3.267-1.273 4.588-2.299l-0.030 0.023-4.558-8.508c-0.825 1.131-2.146 1.857-3.636 1.857-0.053 0-0.105-0.001-0.157-0.003h0.008c-0.051 0.002-0.11 0.003-0.17 0.003-1.476 0-2.792-0.683-3.65-1.749l-0.007-0.009c-0.911-1.316-1.456-2.946-1.456-4.703 0-0.213 0.008-0.423 0.024-0.632l-0.002 0.028v-12.469h10.205v-10.445h-10.205v-26.542h-10.825zM656.080 666.674c1.624 2.957 3.965 5.343 6.795 6.976l0.086 0.046c2.805 1.617 6.169 2.572 9.755 2.572 0.117 0 0.234-0.001 0.35-0.003h-0.018c0.121 0.003 0.264 0.004 0.408 0.004 3.515 0 6.806-0.956 9.628-2.621l-0.088 0.048c2.823-1.693 5.074-4.078 6.561-6.926l0.046-0.096c1.477-2.85 2.343-6.222 2.343-9.796 0-0.111-0.001-0.222-0.002-0.332v0.017c0.001-0.085 0.002-0.185 0.002-0.286 0-3.612-0.866-7.022-2.4-10.033l0.058 0.125c-1.512-2.988-3.768-5.409-6.529-7.078l-0.077-0.043c-2.761-1.619-6.081-2.574-9.624-2.574-0.163 0-0.326 0.002-0.488 0.006h0.024c-0.118-0.002-0.256-0.004-0.395-0.004-3.52 0-6.833 0.89-9.725 2.456l0.108-0.053c-2.9 1.606-5.221 3.949-6.755 6.78l-0.044 0.089c-1.542 2.916-2.448 6.373-2.448 10.042 0 0.201 0.003 0.402 0.008 0.602l-0.001-0.029c-0.002 0.111-0.003 0.242-0.003 0.373 0 3.564 0.898 6.918 2.48 9.849l-0.054-0.11zM666.864 649.19c1.328-1.783 3.43-2.926 5.799-2.926 0.019 0 0.037 0 0.056 0h-0.003c0.058-0.002 0.126-0.003 0.194-0.003 2.357 0 4.452 1.118 5.785 2.853l0.013 0.017c1.427 2.049 2.279 4.591 2.279 7.332s-0.853 5.283-2.307 7.374l0.028-0.042c-1.346 1.752-3.441 2.87-5.797 2.87-0.068 0-0.136-0.001-0.204-0.003h0.010c-0.016 0-0.034 0-0.053 0-2.369 0-4.471-1.143-5.785-2.907l-0.014-0.019c-1.45-2.027-2.318-4.556-2.318-7.288s0.868-5.261 2.344-7.326l-0.026 0.038zM714.863 671.396c1.435 1.423 3.076 2.642 4.873 3.608l0.112 0.055c1.154 0.694 2.52 1.16 3.98 1.302l0.040 0.003-0.538-11.796c-0.346 0.053-0.745 0.084-1.151 0.084-0.058 0-0.116-0.001-0.174-0.002h0.009c-0.045 0.001-0.098 0.001-0.151 0.001-2.101 0-4.039-0.697-5.596-1.873l0.023 0.017c-1.631-1.234-2.92-2.836-3.755-4.687l-0.031-0.076c-0.823-1.742-1.306-3.784-1.311-5.938v-14.408h-10.749v36.8h9.743l0.848-8.426c0.989 2.071 2.272 3.838 3.821 5.331l0.005 0.005zM771.253 690.688v-16.015h8.192v-9.187h-8.192v-27.806h-10.825v27.806h-5.266v9.187h5.266v16.010zM787.532 666.674c1.624 2.957 3.965 5.343 6.795 6.976l0.086 0.046c2.804 1.617 6.167 2.572 9.752 2.572 0.118 0 0.236-0.001 0.353-0.003h-0.018c0.121 0.003 0.264 0.004 0.408 0.004 3.515 0 6.806-0.956 9.628-2.621l-0.088 0.048c2.823-1.693 5.075-4.078 6.561-6.926l0.046-0.096c1.477-2.847 2.343-6.215 2.343-9.786 0-0.114-0.001-0.228-0.003-0.342v0.017c0.001-0.086 0.002-0.188 0.002-0.29 0-3.611-0.866-7.019-2.4-10.029l0.058 0.125c-1.511-2.988-3.767-5.409-6.529-7.078l-0.077-0.043c-2.761-1.619-6.080-2.574-9.622-2.574-0.164 0-0.327 0.002-0.49 0.006h0.024c-0.118-0.002-0.257-0.004-0.397-0.004-3.52 0-6.832 0.89-9.723 2.456l0.108-0.053c-2.902 1.606-5.224 3.949-6.761 6.781l-0.044 0.089c-1.539 2.916-2.442 6.372-2.442 10.040 0 0.202 0.003 0.404 0.008 0.604l-0.001-0.030c-0.002 0.109-0.003 0.237-0.003 0.366 0 3.566 0.898 6.923 2.48 9.856l-0.054-0.11zM798.316 649.19c1.327-1.783 3.428-2.926 5.796-2.926 0.020 0 0.039 0 0.059 0h-0.003c0.058-0.002 0.126-0.003 0.194-0.003 2.357 0 4.452 1.118 5.785 2.853l0.013 0.017c1.427 2.049 2.279 4.591 2.279 7.332s-0.853 5.283-2.307 7.374l0.028-0.042c-1.346 1.752-3.441 2.87-5.797 2.87-0.068 0-0.136-0.001-0.204-0.003h0.010c-0.017 0-0.036 0-0.056 0-2.368 0-4.469-1.143-5.782-2.907l-0.014-0.019c-1.451-2.027-2.319-4.556-2.319-7.288s0.869-5.261 2.345-7.326l-0.026 0.038zM865.889 674.509v-36.823h-9.819l-0.772 5.898c-1.155-2.317-2.852-4.213-4.932-5.573l-0.054-0.033c-2.050-1.298-4.546-2.069-7.222-2.069-0.11 0-0.221 0.001-0.33 0.004h0.016c-0.083-0.002-0.181-0.004-0.279-0.004-2.916 0-5.554 1.195-7.449 3.121l-0.001 0.001c-1.962 1.992-3.173 4.727-3.173 7.746 0 0.062 0.001 0.124 0.002 0.186v-0.009 27.554h10.825v-23.172q0.228-5.389 4.558-5.389c2.527 0.062 4.684 1.584 5.665 3.752l0.016 0.040c1.349 2.612 2.14 5.702 2.14 8.977 0 0.282-0.006 0.562-0.017 0.841l0.001-0.040v14.991zM891.412 671.396c1.435 1.423 3.076 2.642 4.873 3.608l0.113 0.055c1.154 0.693 2.52 1.159 3.98 1.302l0.040 0.003-0.544-11.796c-0.345 0.053-0.743 0.084-1.148 0.084-0.057 0-0.115-0.001-0.172-0.002h0.009c-0.045 0.001-0.099 0.001-0.152 0.001-2.1 0-4.038-0.697-5.594-1.873l0.023 0.017c-1.633-1.233-2.924-2.836-3.761-4.687l-0.031-0.076c-0.823-1.742-1.305-3.784-1.311-5.937v-14.408h-10.749v36.8h9.743l0.848-8.426c0.99 2.071 2.276 3.838 3.827 5.331l0.006 0.006zM910.307 691.8c1.053 1.074 2.516 1.743 4.135 1.755h0.002c1.583-0.019 3.006-0.689 4.018-1.753l0.002-0.002c1.084-1.040 1.757-2.501 1.757-4.118 0-0.048-0.001-0.095-0.002-0.143v0.007c0.001-0.046 0.002-0.1 0.002-0.154 0-1.599-0.675-3.041-1.755-4.056l-0.003-0.003c-1.026-1.036-2.447-1.679-4.019-1.685h-0.001c-0.003 0-0.006 0-0.009 0-1.608 0-3.065 0.643-4.129 1.686l0.001-0.001c-1.117 1.011-1.815 2.466-1.815 4.084 0 0.046 0.001 0.091 0.002 0.136v-0.007c-0.001 0.032-0.001 0.071-0.001 0.109 0 1.637 0.697 3.111 1.811 4.142l0.004 0.003zM919.546 674.48v-36.823h-10.825v36.823zM933.847 638.528c-2.398 1.043-4.416 2.558-6.013 4.441l-0.019 0.024 4.482 6.489c2.047-2.504 5.010-4.192 8.372-4.548l0.055-0.005c0.092-0.004 0.199-0.007 0.307-0.007 1.114 0 2.167 0.266 3.097 0.739l-0.039-0.018c0.764 0.396 1.276 1.18 1.276 2.085 0 0.022 0 0.044-0.001 0.066v-0.003c0.001 0.026 0.001 0.056 0.001 0.086 0 1.065-0.587 1.992-1.456 2.476l-0.014 0.007c-0.943 0.57-2.031 1.070-3.176 1.443l-0.112 0.032q-1.814 0.585-2.434 0.755c-2.679 0.819-4.923 2.395-6.549 4.477l-0.022 0.029c-1.354 1.854-2.166 4.179-2.166 6.693 0 0.062 0 0.124 0.001 0.186v-0.009c0.011 2.113 0.54 4.1 1.467 5.844l-0.033-0.068c1.030 1.955 2.547 3.532 4.393 4.605l0.054 0.029c2.012 1.143 4.419 1.817 6.985 1.817 0.182 0 0.363-0.003 0.543-0.010l-0.026 0.001c0.153 0.004 0.333 0.006 0.513 0.006 2.35 0 4.62-0.34 6.765-0.973l-0.169 0.043c2.163-0.716 4.037-1.747 5.677-3.059l-0.036 0.028-4.096-6.911c-0.993 0.869-2.126 1.616-3.352 2.197l-0.089 0.038c-1.001 0.517-2.178 0.839-3.426 0.883h-0.014c-0.068 0.003-0.149 0.005-0.229 0.005-1.040 0-2.007-0.317-2.808-0.859l0.018 0.011c-0.687-0.426-1.144-1.166-1.17-2.015v-0.004c-0.009-0.082-0.014-0.177-0.014-0.274 0-1.011 0.543-1.894 1.353-2.376l0.013-0.007c1.275-0.721 2.752-1.338 4.305-1.774l0.142-0.034c0.304-0.117 0.632-0.228 0.965-0.339s0.679-0.228 1.042-0.334c4.613-1.187 7.966-5.31 7.966-10.215 0-0.083-0.001-0.165-0.003-0.248v0.012c0-0.042 0.001-0.092 0.001-0.141 0-2.328-0.601-4.515-1.656-6.416l0.034 0.068c-1.162-2.034-2.834-3.658-4.844-4.731l-0.065-0.032c-2.181-1.148-4.766-1.821-7.508-1.821-0.175 0-0.349 0.003-0.522 0.008l0.025-0.001c-0.029 0-0.062 0-0.096 0-2.783 0-5.427 0.592-7.814 1.658l0.122-0.049zM1017.686 673.315c1.939-2.052 3.131-4.828 3.131-7.882 0-0.043 0-0.086-0.001-0.129v0.007-27.636h-10.743v22.768c-0.013 1.509-0.326 2.941-0.882 4.244l0.027-0.072c-0.53 0.939-1.522 1.563-2.659 1.563-0.016 0-0.032 0-0.047 0h0.002c-2.653-0.041-4.918-1.661-5.9-3.96l-0.016-0.043c-1.343-2.593-2.13-5.661-2.13-8.913 0-0.17 0.002-0.34 0.006-0.509l-0.001 0.025v-15.085h-10.825v22.75c-0.007 1.515-0.35 2.949-0.956 4.233l0.026-0.061c-0.596 0.944-1.633 1.563-2.816 1.563-0.016 0-0.032 0-0.048 0h0.002c-2.591-0.075-4.786-1.691-5.707-3.96l-0.015-0.043c-1.316-2.569-2.087-5.605-2.087-8.821 0-0.143 0.002-0.285 0.005-0.428v0.021-15.249h-10.825v36.788h9.801l0.772-5.81c2.124 4.562 6.669 7.668 11.941 7.668 0.097 0 0.195-0.001 0.292-0.003h-0.014c0.142 0.006 0.308 0.010 0.475 0.010 2.333 0 4.507-0.677 6.337-1.846l-0.047 0.028c1.798-1.27 3.109-3.125 3.661-5.284l0.014-0.064c1.357 2.096 3.074 3.839 5.079 5.185l0.064 0.040c1.721 1.189 3.846 1.91 6.137 1.937h0.007c0.151 0.008 0.328 0.012 0.506 0.012 2.897 0 5.522-1.162 7.436-3.045l-0.001 0.001zM373.514 553.917c0.645 0.886 1.031 1.995 1.031 3.195 0 0.204-0.011 0.405-0.033 0.603l0.002-0.024v21.568q0 0.907 0.872 0.907h10.65c0.585 0 0.872-0.304 0.872-0.907v-25.934c0.029-0.33 0.046-0.713 0.046-1.101 0-2.841-0.893-5.473-2.414-7.631l0.028 0.042c-1.807-1.749-4.272-2.827-6.989-2.827-0.366 0-0.727 0.020-1.083 0.058l0.044-0.004h-45.302c-0.291-0.031-0.629-0.048-0.971-0.048-2.682 0-5.113 1.077-6.882 2.823l0.001-0.001c-1.493 2.116-2.386 4.748-2.386 7.589 0 0.387 0.017 0.771 0.049 1.15l-0.003-0.049v20.111q0 0.907 0.872 0.913h10.65c0.585 0 0.872-0.304 0.872-0.913v-15.74c-0.020-0.174-0.031-0.376-0.031-0.581 0-1.199 0.387-2.308 1.042-3.209l-0.011 0.016c0.744-0.661 1.729-1.064 2.808-1.064 0.132 0 0.263 0.006 0.392 0.018l-0.017-0.001h32.645c0.118-0.011 0.254-0.018 0.393-0.018 1.093 0 2.093 0.401 2.86 1.064l-0.006-0.005zM342.747 583.993c-0.585 0-0.872 0.304-0.872 0.907v8.918q0 0.907 0.872 0.907h8.73c0.585 0 0.872-0.304 0.872-0.907v-8.935c0-0.585-0.293-0.907-0.872-0.907zM356.206 583.993c-0.585 0-0.872 0.304-0.872 0.907v8.918q0 0.907 0.872 0.907h8.812q0.872 0 0.872-0.907v-8.935c0-0.585-0.293-0.907-0.872-0.907zM445.563 557.24c0.192-1.35 0.936-2.495 1.991-3.22l0.016-0.010c1.17-0.72 2.588-1.147 4.106-1.147 0.153 0 0.305 0.004 0.455 0.013l-0.021-0.001h2.007c0.054 0.003 0.117 0.005 0.18 0.005 1.008 0 1.899-0.503 2.435-1.271l0.006-0.010c0.564-1.040 0.895-2.276 0.895-3.59 0-0.209-0.008-0.416-0.025-0.621l0.002 0.027q0-5.553-3.511-5.553c-0.095-0.002-0.206-0.003-0.318-0.003-1.911 0-3.752 0.301-5.478 0.857l0.126-0.035c-1.823 0.716-3.282 2.027-4.169 3.69l-0.021 0.043c-0.722-1.727-2.113-3.053-3.84-3.672l-0.046-0.014c-1.895-0.558-4.072-0.88-6.324-0.88-0.278 0-0.555 0.005-0.831 0.015l0.040-0.001h-38.491q-0.872 0-0.872 0.913v9.193q0 0.907 0.872 0.907h13.88v37.127q0 0.907 0.872 0.913h10.65c0.585 0 0.872-0.304 0.872-0.913v-37.127h7.94c0.112-0.010 0.242-0.016 0.373-0.016 1.080 0 2.065 0.403 2.814 1.068l-0.004-0.004c0.648 0.887 1.037 1.998 1.037 3.201 0 0.202-0.011 0.401-0.032 0.598l0.002-0.024v45.132q0 0.907 0.872 0.907h10.638q0.872 0 0.872-0.907zM454.112 541.863c-0.057-0.004-0.124-0.006-0.192-0.006-0.993 0-1.873 0.483-2.418 1.227l-0.006 0.008c-0.565 1.019-0.897 2.234-0.897 3.526 0 0.215 0.009 0.428 0.027 0.638l-0.002-0.027c-0.014 0.185-0.023 0.401-0.023 0.618 0 1.349 0.315 2.624 0.876 3.755l-0.022-0.049c0.53 0.802 1.429 1.324 2.449 1.324 0.075 0 0.15-0.003 0.224-0.008l-0.010 0.001h21.65c0.094-0.002 0.204-0.003 0.315-0.003 1.095 0 2.162 0.118 3.189 0.343l-0.098-0.018c0.827 0.18 1.531 0.618 2.044 1.223l0.004 0.005c0.518 0.674 0.887 1.489 1.043 2.378l0.005 0.033c0.196 1.053 0.308 2.265 0.308 3.502 0 0.128-0.001 0.257-0.004 0.385v-0.019c0 0.018 0 0.038 0 0.059 0 1.287-0.158 2.538-0.455 3.733l0.022-0.106c-0.299 1.216-0.813 2.281-1.503 3.207l0.017-0.023c-0.725 0.955-1.646 1.724-2.706 2.256l-0.044 0.020c-1.152 0.55-2.504 0.871-3.93 0.871-0.106 0-0.211-0.002-0.316-0.005h0.015c-0.058 0.001-0.127 0.002-0.196 0.002-1.743 0-3.387-0.42-4.838-1.165l0.060 0.028c-1.533-0.811-2.852-1.765-4.022-2.875l0.008 0.007c-0.143-0.209-0.38-0.344-0.649-0.344-0.227 0-0.431 0.096-0.574 0.25v0l-5.149 6.437q-0.784 0.819-0.263 1.363c2.005 2.026 4.306 3.754 6.833 5.115l0.153 0.075c2.666 1.329 5.808 2.108 9.132 2.108 0.256 0 0.511-0.005 0.765-0.014l-0.037 0.001c0.171 0.004 0.373 0.007 0.575 0.007 3.224 0 6.296-0.648 9.095-1.82l-0.155 0.058c2.528-1.081 4.659-2.656 6.354-4.618l0.019-0.022c1.586-1.911 2.796-4.195 3.481-6.696l0.030-0.126c0.702-2.452 1.106-5.268 1.106-8.178 0-0.031 0-0.063 0-0.094v0.005c0.008-0.271 0.012-0.59 0.012-0.91 0-2.972-0.369-5.857-1.064-8.613l0.052 0.242c-0.547-2.163-1.545-4.042-2.894-5.612l0.015 0.018c-1.211-1.323-2.784-2.294-4.563-2.759l-0.065-0.015c-1.775-0.462-3.812-0.728-5.912-0.728-0.115 0-0.229 0.001-0.343 0.002h0.017zM509.104 579.259c0 0.585 0.287 0.913 0.872 0.913h10.62q0.872 0 0.872-0.913v-21.475c0.068-1.466 0.784-2.751 1.867-3.584l0.011-0.008c1.204-0.836 2.696-1.336 4.306-1.336 0.159 0 0.317 0.005 0.473 0.014l-0.021-0.001h1.919c0.054 0.003 0.117 0.005 0.18 0.005 1.008 0 1.899-0.503 2.435-1.271l0.006-0.010c0.564-1.037 0.896-2.27 0.896-3.581 0-0.212-0.009-0.422-0.026-0.63l0.002 0.027q0-5.553-3.511-5.553c-0.105-0.002-0.229-0.003-0.353-0.003-1.642 0-3.234 0.215-4.75 0.618l0.129-0.029c-1.471 0.441-2.698 1.321-3.562 2.486l-0.013 0.018v-1.457c0.047-0.572 0.073-1.238 0.073-1.91 0-4.982-1.458-9.623-3.971-13.519l0.059 0.098c-2.86-3.106-6.946-5.045-11.485-5.045-0.567 0-1.128 0.030-1.679 0.089l0.069-0.006h-4.014q-0.872 0-0.872 0.913v9.193c0 0.585 0.293 0.913 0.872 0.913h1.919c0.116-0.007 0.251-0.010 0.388-0.010 1.195 0 2.322 0.289 3.316 0.802l-0.041-0.019c0.88 0.53 1.561 1.312 1.954 2.245l0.012 0.031c0.454 1.084 0.752 2.34 0.829 3.655l0.001 0.032q0.176 2.183 0.176 5.003zM530.052 541.863c-0.093-0.007-0.202-0.011-0.311-0.011-0.852 0-1.649 0.241-2.324 0.66l0.019-0.011c-0.555 0.545-0.899 1.304-0.899 2.142 0 0.142 0.010 0.282 0.029 0.419l-0.002-0.016c0.008 0.874 0.087 1.724 0.23 2.551l-0.013-0.094c0.143 0.97 0.347 1.829 0.617 2.658l-0.032-0.113c0.245 0.766 0.602 1.431 1.058 2.015l-0.011-0.014c0.368 0.499 0.954 0.819 1.615 0.819 0 0 0 0 0 0h3.054c0.113-0.011 0.245-0.017 0.379-0.017 1.080 0 2.066 0.404 2.815 1.068l-0.004-0.004c0.645 0.886 1.031 1.995 1.031 3.195 0 0.204-0.011 0.405-0.033 0.603l0.002-0.024v45.132q0 0.907 0.872 0.907h10.65c0.585 0 0.872-0.304 0.872-0.907v-49.503c0.029-0.33 0.046-0.713 0.046-1.101 0-2.841-0.893-5.473-2.414-7.631l0.028 0.042c-1.77-1.745-4.201-2.822-6.884-2.822-0.343 0-0.682 0.018-1.016 0.052l0.042-0.003zM572.475 542.776c0-0.585-0.293-0.913-0.872-0.913h-10.55q-0.872 0-0.872 0.913v60.059q0 0.907 0.872 0.907h10.533c0.585 0 0.872-0.304 0.872-0.907zM629.83 541.225c-0.076-0.001-0.167-0.001-0.257-0.001-2.476 0-4.866 0.366-7.12 1.047l0.174-0.045c-2.237 0.688-4.156 1.849-5.72 3.373l0.003-0.003c-0.351-0.602-0.786-1.113-1.296-1.537l-0.009-0.007c-0.497-0.39-0.94-0.792-1.353-1.224l-0.005-0.005c-0.439-0.466-0.805-1.007-1.073-1.602l-0.015-0.037c-0.281-0.69-0.444-1.49-0.444-2.329 0-0.093 0.002-0.185 0.006-0.276v0.013-15.378h-12.399v17.279c-0.004 0.134-0.007 0.292-0.007 0.45 0 1.643 0.259 3.225 0.739 4.708l-0.030-0.108c0.43 1.256 1.038 2.344 1.807 3.297l-0.016-0.021c0.678 0.833 1.448 1.553 2.305 2.158l0.036 0.024q1.264 0.86 2.446 1.755c0.763 0.555 1.423 1.186 1.992 1.893l0.016 0.020c0.572 0.77 0.94 1.723 1.006 2.758l0.001 0.015c-0.056 0.505-0.088 1.090-0.088 1.682 0 0.026 0 0.052 0 0.077v-0.004 1.913c-0.008 0.24-0.012 0.523-0.012 0.807 0 3.277 0.579 6.42 1.64 9.33l-0.060-0.189c0.94 2.497 2.384 4.614 4.22 6.316l0.011 0.010c1.706 1.522 3.769 2.682 6.045 3.337l0.11 0.027c2.198 0.636 4.722 1.001 7.332 1.001s5.134-0.366 7.525-1.048l-0.193 0.047c2.387-0.684 4.45-1.844 6.171-3.378l-0.016 0.014c1.845-1.712 3.289-3.829 4.193-6.213l0.037-0.113c1.005-2.723 1.586-5.868 1.586-9.149 0-0.281-0.004-0.56-0.013-0.839l0.001 0.041c0-0.427 0-0.837-0.047-1.229s-0.041-0.772-0.041-1.135c-0.001-0.038-0.001-0.083-0.001-0.128 0-1.652 0.629-3.158 1.662-4.289l-0.004 0.005c0.931-0.875 2.189-1.413 3.572-1.413 0.063 0 0.126 0.001 0.188 0.003h2.437c0.053 0.003 0.115 0.005 0.177 0.005 1.007 0 1.897-0.503 2.432-1.271l0.006-0.010c0.564-1.037 0.896-2.27 0.896-3.581 0-0.212-0.009-0.422-0.026-0.63l0.002 0.027q0-5.553-3.511-5.553-1.568 0-3.189 0.135c-1.156 0.1-2.223 0.343-3.228 0.712l0.086-0.028c-1.118 0.411-2.086 0.948-2.952 1.611l0.027-0.020c-1.012 0.791-1.856 1.741-2.508 2.821l-0.026 0.046c-1.676-2.11-3.915-3.705-6.491-4.565l-0.098-0.028c-2.56-0.872-5.509-1.375-8.575-1.375-0.022 0-0.043 0-0.065 0h0.003zM629.83 570.71q-7.162 0-7.156-9.193c-0.035-0.33-0.054-0.712-0.054-1.099 0-2.284 0.689-4.408 1.87-6.174l-0.025 0.040c1.427-1.27 3.317-2.046 5.389-2.046s3.963 0.776 5.397 2.053l-0.008-0.007c1.133 1.737 1.807 3.863 1.807 6.147 0 0.382-0.019 0.76-0.056 1.132l0.004-0.047q-0.023 9.187-7.168 9.187zM666.735 579.259q0 0.913 0.878 0.913h10.533c0.585 0 0.872-0.304 0.872-0.913v-21.475c0.069-1.465 0.785-2.751 1.867-3.584l0.011-0.008c1.204-0.836 2.696-1.336 4.306-1.336 0.159 0 0.317 0.005 0.473 0.014l-0.021-0.001h2.007c0.052 0.003 0.113 0.005 0.175 0.005 1.008 0 1.899-0.503 2.435-1.271l0.006-0.010c0.564-1.039 0.895-2.275 0.895-3.589 0-0.209-0.008-0.417-0.025-0.622l0.002 0.027q0-5.553-3.511-5.553c-0.106-0.002-0.231-0.003-0.357-0.003-1.93 0-3.79 0.301-5.536 0.858l0.129-0.035c-1.803 0.704-3.237 2.021-4.076 3.689l-0.020 0.044c-0.777-1.788-2.267-3.143-4.102-3.72l-0.047-0.013c-2.016-0.528-4.331-0.832-6.717-0.832-0.294 0-0.588 0.005-0.88 0.014l0.043-0.001h-8.988c-0.065-0.005-0.14-0.008-0.217-0.008-0.966 0-1.828 0.443-2.395 1.137l-0.004 0.006c-0.57 1.018-0.906 2.234-0.906 3.528 0 0.247 0.012 0.492 0.036 0.733l-0.002-0.030c-0.016 0.198-0.026 0.428-0.026 0.66 0 1.349 0.316 2.623 0.879 3.754l-0.022-0.049c0.533 0.78 1.419 1.285 2.423 1.285 0.084 0 0.168-0.004 0.251-0.011l-0.011 0.001h5.413q2.797 0 3.511 1.685c0.458 1.452 0.722 3.121 0.722 4.852 0 0.325-0.009 0.648-0.028 0.968l0.002-0.044zM661.241 523.203c-0.585 0-0.872 0.304-0.872 0.913v8.918c0 0.585 0.287 0.907 0.872 0.907h8.73c0.585 0 0.872-0.304 0.872-0.907v-8.918c0-0.585-0.293-0.913-0.872-0.913zM674.699 523.203q-0.872 0-0.872 0.913v8.918q0 0.907 0.872 0.907h8.818c0.585 0 0.872-0.304 0.872-0.907v-8.918c0-0.585-0.293-0.913-0.872-0.913zM691.703 552.875c0.070-0.005 0.152-0.007 0.234-0.007 0.833 0 1.603 0.275 2.221 0.74l-0.010-0.007c0.605 0.528 1.070 1.203 1.342 1.968l0.010 0.033c0.327 0.873 0.538 1.882 0.584 2.934l0.001 0.021q0.088 1.685 0.088 3.593v40.679c0.117 0.585 0.41 0.907 0.872 0.907h10.562c0.585 0 0.872-0.304 0.872-0.907v-25.571c2.398 1.134 5.269 2.205 8.237 3.044l0.405 0.098c2.91 0.836 6.253 1.317 9.708 1.317 0.055 0 0.111 0 0.166 0h-0.009c0.462 0.034 1.001 0.053 1.544 0.053 5.587 0 10.7-2.035 14.636-5.403l-0.031 0.026c3.516-3.884 5.667-9.061 5.667-14.74 0-0.657-0.029-1.307-0.085-1.95l0.006 0.083q0-0.544-0.041-1.047c-0.029-0.334-0.047-0.655-0.047-0.954 0.069-1.465 0.785-2.751 1.867-3.584l0.011-0.008c1.202-0.833 2.692-1.33 4.298-1.33 0.162 0 0.322 0.005 0.481 0.015l-0.022-0.001h2.007c0.053 0.003 0.115 0.005 0.177 0.005 1.009 0 1.901-0.503 2.438-1.271l0.006-0.010c0.563-1.040 0.895-2.278 0.895-3.592 0-0.208-0.008-0.414-0.025-0.618l0.002 0.027q0-5.553-3.511-5.553c-0.117-0.003-0.255-0.005-0.393-0.005-2.197 0-4.296 0.418-6.222 1.18l0.115-0.040c-1.997 0.937-3.548 2.549-4.385 4.536l-0.021 0.057c-1.199-2.227-3.201-3.892-5.609-4.623l-0.067-0.017c-2.65-0.705-5.692-1.109-8.829-1.109-0.364 0-0.727 0.005-1.089 0.016l0.053-0.001h-20.86c-0.176-0.019-0.381-0.029-0.588-0.029-1.736 0-3.298 0.747-4.381 1.938l-0.004 0.005c-1.049-0.948-2.441-1.532-3.97-1.545h-0.003c-1.838-0.231-3.966-0.363-6.124-0.363-0.040 0-0.080 0-0.12 0h-6.805c-0.065-0.005-0.14-0.008-0.217-0.008-0.966 0-1.828 0.443-2.395 1.137l-0.004 0.006c-0.572 1.037-0.908 2.273-0.908 3.588 0 0.259 0.013 0.516 0.039 0.768l-0.003-0.032c-0.028 0.258-0.044 0.557-0.044 0.86 0 1.325 0.306 2.579 0.85 3.695l-0.022-0.050c0.585 0.655 1.431 1.065 2.373 1.065 0.116 0 0.231-0.006 0.344-0.018l-0.014 0.001zM724.699 570.71c-0.010 0-0.021 0-0.033 0-3.085 0-6.062-0.466-8.863-1.332l0.212 0.057c-2.982-0.882-5.488-1.84-7.901-2.965l0.346 0.145v-10.193c0-0.032 0-0.069 0-0.106 0-1.216-0.096-2.41-0.28-3.574l0.017 0.129h17.285q3.224 0 5.266 0.181c1.177 0.050 2.267 0.38 3.218 0.925l-0.035-0.018c0.772 0.526 1.325 1.323 1.523 2.252l0.004 0.024c0.253 1.14 0.399 2.449 0.399 3.792 0 0.171-0.002 0.341-0.007 0.511l0.001-0.025c0.001 0.072 0.002 0.158 0.002 0.243 0 1.467-0.191 2.889-0.549 4.243l0.026-0.116c-0.334 1.262-0.954 2.35-1.788 3.234l0.003-0.004c-0.918 0.911-2.068 1.59-3.352 1.942l-0.054 0.013c-1.498 0.412-3.219 0.649-4.994 0.649-0.159 0-0.318-0.002-0.477-0.006h0.023zM721.908 589.365c-0.585 0-0.872 0.304-0.872 0.913v8.918c0 0.585 0.287 0.913 0.872 0.913h10.819c0.585 0 0.872-0.304 0.872-0.913v-8.918c0-0.585-0.293-0.913-0.872-0.913zM775.665 546.415c-0.828-1.722-2.275-3.037-4.046-3.671l-0.050-0.016c-1.946-0.559-4.182-0.88-6.492-0.88-0.295 0-0.589 0.005-0.882 0.016l0.042-0.001h-6.981c-0.1-0.008-0.216-0.012-0.334-0.012-0.84 0-1.629 0.221-2.311 0.609l0.023-0.012q-0.872 0.585-0.872 2.592c0.005 0.902 0.069 1.785 0.187 2.65l-0.012-0.105c0.111 0.947 0.316 1.808 0.611 2.627l-0.026-0.082c0.267 0.754 0.653 1.403 1.141 1.961l-0.006-0.007c0.415 0.475 1.022 0.773 1.699 0.773 0.020 0 0.040 0 0.060-0.001h2.876q2.703 0 3.452 1.592c0.489 1.42 0.772 3.057 0.772 4.76 0 0.326-0.010 0.65-0.031 0.971l0.002-0.044v19.111q0 0.726 1.264 0.819t2.224 0.094h8.028c0.585 0 0.878-0.304 0.878-0.907v-21.475c0.068-1.466 0.784-2.751 1.867-3.584l0.011-0.008c1.202-0.833 2.692-1.33 4.298-1.33 0.162 0 0.322 0.005 0.481 0.015l-0.022-0.001h2.007c0.054 0.003 0.117 0.005 0.18 0.005 1.008 0 1.899-0.503 2.435-1.271l0.006-0.010c0.564-1.037 0.896-2.27 0.896-3.581 0-0.212-0.009-0.422-0.026-0.63l0.002 0.027q0-5.553-3.511-5.553c-0.106-0.002-0.231-0.004-0.357-0.004-1.928 0-3.786 0.301-5.529 0.858l0.128-0.035c-1.799 0.708-3.229 2.027-4.064 3.695l-0.020 0.044zM765.279 589.365q-0.872 0-0.872 0.907v8.918q0 0.907 0.872 0.913h10.825q0.872 0 0.872-0.913v-8.918q0-0.913-0.872-0.907zM795.045 579.265q0 0.907 0.872 0.907h10.533c0.585 0 0.872-0.304 0.872-0.907v-21.475c0.068-1.466 0.784-2.751 1.867-3.584l0.011-0.008c1.202-0.833 2.692-1.33 4.298-1.33 0.162 0 0.322 0.005 0.481 0.015l-0.022-0.001h2.007c0.053 0.003 0.115 0.005 0.177 0.005 1.007 0 1.897-0.503 2.432-1.271l0.006-0.010c0.564-1.037 0.896-2.27 0.896-3.581 0-0.212-0.009-0.422-0.026-0.63l0.002 0.027q0-5.553-3.511-5.553c-0.107-0.002-0.232-0.004-0.358-0.004-1.93 0-3.789 0.301-5.534 0.858l0.129-0.035c-1.803 0.704-3.237 2.021-4.076 3.689l-0.020 0.044c-0.777-1.788-2.267-3.142-4.102-3.72l-0.047-0.013c-2.015-0.528-4.329-0.832-6.713-0.832-0.294 0-0.586 0.005-0.878 0.014l0.043-0.001h-8.988c-0.066-0.005-0.142-0.008-0.219-0.008-0.965 0-1.827 0.443-2.392 1.137l-0.004 0.006c-0.57 1.018-0.905 2.235-0.905 3.53 0 0.247 0.012 0.491 0.036 0.731l-0.002-0.030c-0.017 0.202-0.027 0.436-0.027 0.674 0 1.346 0.315 2.618 0.874 3.747l-0.022-0.049c0.533 0.78 1.419 1.285 2.423 1.285 0.084 0 0.168-0.004 0.251-0.011l-0.011 0.001h5.413q2.791 0 3.511 1.685c0.458 1.452 0.722 3.121 0.722 4.852 0 0.325-0.009 0.648-0.028 0.968l0.002-0.044zM789.984 589.365q-0.872 0-0.872 0.907v8.918q0 0.907 0.872 0.913h8.724q0.872 0 0.872-0.913v-8.918q0-0.913-0.872-0.907zM803.442 589.365q-0.878 0-0.872 0.907v8.918q0 0.907 0.872 0.913h8.812c0.585 0 0.872-0.304 0.872-0.913v-8.918c0-0.585-0.293-0.907-0.872-0.907zM815.993 541.863c-0.093-0.007-0.202-0.011-0.311-0.011-0.852 0-1.649 0.241-2.324 0.66l0.019-0.011c-0.555 0.546-0.899 1.305-0.899 2.144 0 0.141 0.010 0.281 0.029 0.417l-0.002-0.016c0.008 0.874 0.087 1.724 0.23 2.551l-0.013-0.094c0.145 0.972 0.349 1.831 0.617 2.661l-0.032-0.115c0.245 0.766 0.602 1.431 1.058 2.015l-0.011-0.014c0.367 0.499 0.952 0.819 1.612 0.819 0.001 0 0.002 0 0.003 0v0h3.054c0.113-0.011 0.244-0.017 0.377-0.017 1.081 0 2.067 0.403 2.817 1.068l-0.004-0.004c0.645 0.886 1.031 1.995 1.031 3.195 0 0.204-0.011 0.405-0.033 0.603l0.002-0.024v45.132q0 0.907 0.872 0.907h10.65c0.585 0 0.872-0.304 0.872-0.907v-49.503c0.029-0.329 0.046-0.712 0.046-1.099 0-2.841-0.893-5.474-2.414-7.632l0.028 0.042c-1.769-1.745-4.199-2.822-6.882-2.822-0.344 0-0.684 0.018-1.019 0.052l0.042-0.004zM868.803 550.874c-0.511 0.94-0.944 2.030-1.241 3.175l-0.022 0.102c-0.305 1.136-0.48 2.44-0.48 3.785 0 0.046 0 0.091 0.001 0.137v-0.007c0 0.015 0 0.032 0 0.049 0 1.985 0.336 3.891 0.955 5.665l-0.037-0.121c0.639 1.855 1.607 3.449 2.846 4.79l-0.008-0.009c1.333 1.418 2.946 2.556 4.753 3.329l0.092 0.035c1.917 0.809 4.145 1.28 6.483 1.28 0.13 0 0.259-0.001 0.388-0.004h-0.019c0.065 0.001 0.142 0.001 0.218 0.001 2.718 0 5.285-0.649 7.554-1.801l-0.095 0.044c2.089-1.003 3.82-2.455 5.123-4.239l0.027-0.038c0.164-0.179 0.264-0.419 0.264-0.682s-0.1-0.502-0.265-0.682l0.001 0.001-4.365-4.822c-0.293-0.304-0.538-0.439-0.743-0.41-0.253 0.051-0.475 0.162-0.657 0.318l0.002-0.002c-0.868 0.929-1.857 1.728-2.946 2.377l-0.061 0.034c-0.979 0.546-2.148 0.867-3.392 0.867-0.042 0-0.084 0-0.125-0.001h0.006c-0.054 0.002-0.118 0.003-0.183 0.003-1.555 0-2.96-0.647-3.958-1.686l-0.002-0.002c-1.008-1.121-1.625-2.611-1.625-4.246 0-0.122 0.003-0.244 0.010-0.364l-0.001 0.017c-0.001-0.058-0.002-0.126-0.002-0.194 0-1.447 0.372-2.808 1.024-3.991l-0.022 0.043c0.586-1.083 1.329-2.001 2.211-2.763l0.012-0.010h14.839c0.585 0 0.872-0.334 0.872-1.001v-7.022c0-0.667-0.293-1.001-0.872-1.001h-31.334q-0.872 0-0.872 1.001v7.022c0 0.667 0.293 1.001 0.872 1.001zM903.8 602.835q0 0.907 0.872 0.907h10.562q0.872 0 0.872-0.907v-45.132c-0.020-0.174-0.031-0.375-0.031-0.579 0-1.2 0.387-2.309 1.042-3.211l-0.011 0.016c0.745-0.661 1.732-1.064 2.812-1.064 0.133 0 0.264 0.006 0.393 0.018l-0.017-0.001h2.341c0.050 0.003 0.11 0.005 0.169 0.005 1.019 0 1.916-0.521 2.44-1.311l0.007-0.011c0.565-1.097 0.897-2.393 0.897-3.767 0-0.227-0.009-0.452-0.027-0.674l0.002 0.029c0.028-0.24 0.044-0.518 0.044-0.8 0-1.273-0.324-2.471-0.894-3.516l0.019 0.038c-0.596-0.625-1.435-1.014-2.365-1.014-0.105 0-0.208 0.005-0.31 0.015l0.013-0.001h-8.643c-0.291-0.031-0.628-0.048-0.969-0.048-2.683 0-5.114 1.077-6.885 2.823l0.001-0.001c-1.493 2.115-2.387 4.746-2.387 7.585 0 0.389 0.017 0.773 0.050 1.153l-0.003-0.049zM949.804 541.225c-0.087-0.001-0.189-0.002-0.292-0.002-2.934 0-5.762 0.45-8.421 1.284l0.199-0.054c-2.616 0.826-4.822 2.328-6.484 4.303l-0.017 0.021c-0.633-1.081-1.486-1.967-2.503-2.621l-0.031-0.018c-0.941-0.615-2.026-1.127-3.18-1.48l-0.091-0.024c-0.976-0.304-2.118-0.529-3.295-0.633l-0.064-0.005q-1.662-0.135-2.967-0.135c-0.064-0.005-0.139-0.008-0.214-0.008-0.976 0-1.844 0.458-2.402 1.171l-0.005 0.007c-0.567 1.020-0.901 2.237-0.901 3.533 0 0.229 0.010 0.456 0.031 0.68l-0.002-0.029c-0.016 0.202-0.026 0.437-0.026 0.674 0 1.339 0.299 2.609 0.833 3.745l-0.023-0.054c0.533 0.782 1.42 1.289 2.425 1.289 0.098 0 0.195-0.005 0.29-0.014l-0.012 0.001h2.534c1.456 0.038 2.748 0.709 3.616 1.748l0.006 0.008c1.13 1.62 1.805 3.629 1.805 5.796 0 0.225-0.007 0.449-0.022 0.67l0.002-0.030v1.82c-0.026 0.37-0.041 0.802-0.041 1.237 0 4.925 1.908 9.405 5.025 12.741l-0.010-0.011c3.426 3.049 7.967 4.911 12.942 4.911 0.453 0 0.903-0.015 1.349-0.046l-0.060 0.003c0.282 0.015 0.613 0.023 0.945 0.023 5.069 0 9.679-1.966 13.109-5.177l-0.011 0.010c3.306-3.674 5.328-8.561 5.328-13.92 0-0.562-0.022-1.12-0.066-1.671l0.005 0.073c0-0.427 0-0.837-0.047-1.229s-0.041-0.772-0.041-1.135c-0.001-0.037-0.001-0.080-0.001-0.124 0-1.655 0.632-3.162 1.667-4.293l-0.004 0.005c0.932-0.875 2.19-1.413 3.574-1.413 0.062 0 0.124 0.001 0.186 0.003h2.525c0.053 0.003 0.115 0.005 0.177 0.005 1.007 0 1.897-0.503 2.432-1.271l0.006-0.010c0.564-1.037 0.896-2.27 0.896-3.581 0-0.212-0.009-0.422-0.026-0.63l0.002 0.027q0-5.553-3.511-5.553-1.574 0-3.23 0.135c-1.187 0.101-2.285 0.344-3.322 0.713l0.092-0.028c-1.134 0.403-2.116 0.942-2.993 1.611l0.026-0.019c-0.996 0.779-1.815 1.732-2.422 2.82l-0.024 0.047c-1.676-2.11-3.915-3.705-6.491-4.565l-0.098-0.028c-2.498-0.829-5.374-1.307-8.361-1.307-0.111 0-0.223 0.001-0.334 0.002h0.017zM949.804 570.71q-7.162 0-7.156-9.193c-0.035-0.33-0.054-0.712-0.054-1.099 0-2.284 0.689-4.408 1.87-6.174l-0.025 0.040c1.427-1.27 3.317-2.046 5.389-2.046s3.963 0.776 5.397 2.053l-0.008-0.007c1.134 1.735 1.808 3.86 1.808 6.143 0 0.384-0.019 0.763-0.056 1.137l0.004-0.047q-0.012 9.187-7.168 9.187zM977.118 541.863c-0.093-0.007-0.202-0.011-0.311-0.011-0.852 0-1.649 0.241-2.324 0.66l0.019-0.011c-0.555 0.545-0.9 1.304-0.9 2.143 0 0.144 0.010 0.286 0.030 0.424l-0.002-0.016c0.031 1.797 0.332 3.514 0.866 5.124l-0.035-0.122c0.246 0.766 0.603 1.431 1.058 2.016l-0.011-0.014c0.367 0.499 0.952 0.819 1.612 0.819 0.001 0 0.002 0 0.003 0v0h3.054c0.113-0.011 0.245-0.017 0.379-0.017 1.080 0 2.066 0.404 2.815 1.068l-0.004-0.004c0.645 0.886 1.031 1.996 1.031 3.197 0 0.203-0.011 0.404-0.033 0.602l0.002-0.024v21.568c0 0.585 0.293 0.907 0.878 0.907h10.65c0.585 0 0.872-0.304 0.872-0.907v-25.934c0.029-0.33 0.046-0.714 0.046-1.102 0-2.84-0.893-5.472-2.414-7.629l0.028 0.042c-1.77-1.745-4.201-2.822-6.884-2.822-0.343 0-0.682 0.018-1.016 0.052l0.042-0.003zM985.146 589.365c-0.585 0-0.872 0.304-0.872 0.907v8.918c0 0.585 0.287 0.913 0.872 0.913h10.825c0.585 0 0.872-0.304 0.872-0.913v-8.918c0-0.585-0.293-0.907-0.872-0.907zM1005.486 521.57c-0.329 0.619-0.625 1.343-0.85 2.097l-0.022 0.085c-0.223 0.76-0.352 1.634-0.352 2.537 0 0.036 0 0.072 0.001 0.108v-0.005c0.010 1.178 0.224 2.303 0.607 3.346l-0.022-0.069c0.399 1.139 0.978 2.122 1.712 2.966l-0.009-0.011c0.789 0.897 1.767 1.609 2.874 2.075l0.052 0.019c1.194 0.491 2.58 0.776 4.033 0.776 0.1 0 0.2-0.001 0.3-0.004h-0.015c0.077 0.002 0.168 0.003 0.259 0.003 1.668 0 3.246-0.388 4.647-1.078l-0.062 0.028c1.277-0.624 2.343-1.5 3.168-2.571l0.015-0.021c0.071-0.1 0.113-0.225 0.113-0.359 0-0.182-0.077-0.345-0.201-0.459v0l-2.616-2.82c-0.293-0.363-0.585-0.398-0.872-0.094-0.96 1.238-2.429 2.041-4.087 2.095h-0.009c-0.037 0.001-0.081 0.002-0.125 0.002-1.012 0-1.926-0.42-2.578-1.095l-0.001-0.001c-0.656-0.713-1.059-1.669-1.059-2.719 0-0.073 0.002-0.145 0.006-0.217v0.010c-0.001-0.037-0.002-0.081-0.002-0.125 0-1.007 0.311-1.941 0.843-2.712l-0.010 0.016c0.486-0.719 1.081-1.324 1.768-1.805l0.022-0.015h8.684c0.351 0 0.527-0.211 0.527-0.638v-4.096q0-0.638-0.527-0.638h-19.462c-0.351 0-0.527 0.211-0.527 0.638v4.096c0 0.427 0.176 0.638 0.527 0.638zM1018.669 542.776c0-0.585-0.293-0.913-0.872-0.913h-10.562q-0.872 0-0.872 0.913v60.059q0 0.907 0.872 0.907h10.562c0.585 0 0.872-0.304 0.872-0.907z" />
<glyph unicode="&#xe931;" glyph-name="heart" d="M733.645 870.374v0c-0.454 0.003-0.991 0.004-1.529 0.004-88.115 0-166.981-39.604-219.768-101.982l-0.348-0.422c-52.435 62.772-130.737 102.42-218.299 102.42-1.176 0-2.351-0.007-3.524-0.021l0.178 0.002c-160.359 0-290.355-129.996-290.355-290.355v0c0-274.79 479.59-543.104 499.046-553.472 3.642-2.466 8.132-3.937 12.966-3.937s9.325 1.471 13.049 3.989l-0.082-0.052c19.43 10.368 499.021 274.79 499.021 553.472 0 160.359-129.996 290.355-290.355 290.355v0z" />
<glyph unicode="&#xe932;" glyph-name="heart-outline" d="M293.705 819.199c-0.918 0-1.83-0.005-2.75-0.016l-0.304-0.004h-0.304c-131.867 0-239.148-107.281-239.148-239.148 0-97.234 77.442-213.66 223.953-336.69 101.569-85.291 203.78-146.366 236.9-165.37 33.365 18.961 136.102 79.758 236.886 163.989 185.023 154.635 223.861 269.196 223.861 338.071 0 131.867-107.282 239.148-239.15 239.148h-0.141l-0.141 0.001-1.268 0.003c-69.936 0-135.885-30.684-180.938-84.183l-39.421-46.811-39.118 47.065c-44.341 53.349-109.554 83.946-178.919 83.946zM293.705 870.399c84.307 0 164.332-37.496 218.294-102.419 54.695 64.949 135.251 102.406 220.11 102.403 0.511 0 1.030-0.001 1.541-0.004 160.355 0 290.35-129.993 290.35-290.348 0-278.684-479.594-543.108-499.038-553.479-3.924-2.621-8.444-3.932-12.963-3.932s-9.039 1.311-12.961 3.932c-19.444 10.37-499.038 278.682-499.038 553.479 0 160.355 129.992 290.348 290.348 290.348 1.123 0.013 2.236 0.020 3.357 0.020z" />
<glyph unicode="&#xe933;" glyph-name="rajhi-bank" d="M25.6 960v-1024h969.395v1024zM928.154 6.758h-835.686v883.046h835.686zM344.832 677.555v-167.706l-147.072-90.266v-201.114l163.226-100.838c0.563 0 149.862 89.139 149.862 89.139l144.282-89.139 167.142 101.965v200.013l-147.072 90.266v167.706l-164.352 100.275zM344.832 428.518v-120.909l98.611-60.16-80.794-49.587-98.048 60.16v120.909zM510.848 697.6l98.048-60.16v-288.589c-0.563-0.563-97.51-59.622-98.048-59.622-0.563 0.563-98.611 59.622-99.84 59.622v288.589zM675.2 307.61v0 120.909l80.794-49.024v-120.909l-98.611-60.16-80.23 49.485z" />
<glyph unicode="&#xe934;" glyph-name="sabb-bank" d="M252.595 702.874l258.278-257.126 1.126 1.152 256 256zM252.595 188.621h515.379l-257.126 257.126zM257.126 704l-257.126-258.278 257.126-257.126zM766.848 704v-515.379l257.126 257.126z" />
<glyph unicode="&#xe935;" glyph-name="no-smoking" d="M725.337 618.652c-23.564 0.025-42.66 19.121-42.685 42.683v0.002c-0.051 47.104-38.222 85.275-85.321 85.326h-64.010c-11.787 0-21.343-9.555-21.343-21.343s9.555-21.343 21.343-21.343v0h64.006c23.564-0.025 42.66-19.121 42.685-42.683v-0.002c0.051-47.104 38.222-85.275 85.321-85.326h0.005c23.564-0.025 42.66-19.121 42.685-42.683v-64.052c0-11.787 9.555-21.343 21.343-21.343s21.343 9.555 21.343 21.343v0 64.095c-0.051 47.119-38.247 85.301-85.368 85.326h-0.002zM704.017 490.685h-42.685c-11.765 0.025-21.295 9.556-21.32 21.318v0.002c-0.025 35.339-28.666 63.98-64.003 64.006h-0.002c-11.765 0.025-21.295 9.556-21.32 21.318v42.687c0 11.787-9.555 21.343-21.343 21.343s-21.343-9.555-21.343-21.343v0-42.685c0.025-35.339 28.666-63.98 64.003-64.006h0.002c11.765-0.025 21.295-9.556 21.32-21.318v-0.002c0.025-35.339 28.666-63.98 64.003-64.006h42.688c11.787 0 21.343 9.555 21.343 21.343s-9.555 21.343-21.343 21.343v0zM511.866 960c-282.696 0-511.866-229.17-511.866-511.866s229.17-511.866 511.866-511.866c282.696 0 511.866 229.17 511.866 511.866v0c-0.405 282.533-229.333 511.461-511.827 511.866h-0.039zM511.866 21.326c-0.051 0-0.112 0-0.173 0-235.474 0-426.363 190.889-426.363 426.363 0 102.861 36.425 197.214 97.079 270.865l-0.586-0.733 312.506-312.506h-259.672c-11.775 0-21.32-9.545-21.32-21.32v0-85.326c0-11.775 9.545-21.32 21.32-21.32v0h387.683l159.524-159.524c-72.696-60.065-166.844-96.498-269.501-96.498-0.175 0-0.349 0-0.524 0h0.026zM842.043 178.18l-99.169 99.169h46.335c11.775 0 21.32 9.545 21.32 21.32v0 85.326c0 11.775-9.545 21.32-21.32 21.32v0h-174.213l-372.817 372.861c72.913 60.056 167.257 96.472 270.106 96.472 235.474 0 426.363-190.889 426.363-426.363 0-102.849-36.416-197.192-97.058-270.839l0.586 0.733zM725.515 319.989v42.685h42.685v-42.685z" />
<glyph unicode="&#xe936;" glyph-name="park" d="M480.479 663.307c-17.453 0-53.426-0.757-64.913-1.781v-185.567c9.795-0.935 42.785-1.425 55.786-1.425 81.386 0 122.657 33.614 122.657 99.862-0.134 58.858-38.333 88.91-113.53 88.91zM907.13 960h-790.261c-64.551-0.025-116.87-52.36-116.87-116.914v0-790.172c0-64.554 52.319-116.889 116.867-116.914h790.263c64.551 0.025 116.87 52.36 116.87 116.914v0 790.172c0 64.554-52.319 116.889-116.867 116.914h-0.002zM680.070 424.671c-50.802-48.041-119.541-77.577-195.178-77.577-5.436 0-10.837 0.153-16.199 0.454l0.744-0.033c-10.24 0-42.874 0-53.96 0.846v-184.409c0-31.695-25.694-57.389-57.389-57.389h-13.045c-0.013 0-0.029 0-0.045 0-31.695 0-57.389 25.694-57.389 57.389 0 0 0 0 0 0v0 561.553c0.008 29.351 22.049 53.551 50.482 56.961l0.273 0.027c38.6 4.452 100.129 6.945 140.288 6.945 5.815 0.426 12.597 0.669 19.437 0.669 65.881 0 126.501-22.528 174.576-60.3l-0.61 0.462c39.655-36.205 64.436-88.122 64.436-145.827 0-2.232-0.037-4.456-0.111-6.67l0.008 0.322c0.125-2.72 0.196-5.91 0.196-9.116 0-55.784-21.508-106.544-56.684-144.44l0.123 0.134z" />
<glyph unicode="&#xe937;" glyph-name="up-arrow" d="M42.176 262.4l453.184 453.504c8.081 7.956 19.179 12.869 31.424 12.869s23.343-4.913 31.43-12.875l-0.006 0.006 452.992-453.504c7.911-7.968 12.801-18.946 12.801-31.066 0-0.103 0-0.207-0.001-0.31v0.016c0.001-0.095 0.001-0.208 0.001-0.32 0-12.112-4.89-23.081-12.803-31.042l-26.558-26.558c-7.949-7.911-18.91-12.801-31.013-12.801-0.122 0-0.244 0-0.365 0.001h0.019c-0.103-0.001-0.225-0.001-0.347-0.001-12.103 0-23.064 4.89-31.015 12.803l0.002-0.002-395.136 395.648-395.392-395.968c-7.949-7.911-18.91-12.801-31.013-12.801-0.122 0-0.244 0-0.365 0.001h0.019c-0.084-0.001-0.184-0.001-0.283-0.001-12.103 0-23.064 4.89-31.015 12.803l-26.558 26.558c-8.013 8.091-12.964 19.227-12.964 31.52s4.951 23.429 12.968 31.524l-0.004-0.004z" />
<glyph unicode="&#xe938;" glyph-name="placeholder" d="M518.982 960c-196.541-0.159-355.834-159.404-356.073-355.91v-0.023c0-246.691 356.073-668.067 356.073-668.067s355.607 433.524 355.607 668.067c-0.238 196.366-159.267 355.51-355.567 355.933h-0.041zM626.036 499.852c-27.068-25.344-63.565-40.909-103.696-40.909-83.88 0-151.878 67.998-151.878 151.878 0 40.178 15.601 76.712 41.076 103.875l-0.076-0.082c27.33 27.487 65.17 44.498 106.983 44.498 0.189 0 0.377 0 0.566-0.001h-0.029c83.728-0.2 151.525-68.121 151.525-151.877 0-41.933-16.994-79.898-44.471-107.381v0z" />
<glyph unicode="&#xe939;" glyph-name="refrigerator" d="M732.739-64c23.546 0.025 42.627 19.106 42.652 42.649v42.654c47.116 0.051 85.298 38.232 85.348 85.343v768.005c-0.051 47.1-38.207 85.272-85.296 85.348h-512.007c-47.116-0.051-85.298-38.232-85.348-85.343v-768.005c0.051-47.116 38.232-85.298 85.343-85.348h0.005v-42.652c0-23.568 19.106-42.674 42.674-42.674s42.674 19.106 42.674 42.674v42.652h341.304v-42.652c0.025-23.546 19.106-42.627 42.649-42.652h0.002zM263.435 874.652h512v-426.652h-512.045v426.652zM263.435 362.652h512v-256h-512zM370.065 576c23.546 0.025 42.627 19.106 42.652 42.649v85.35c0 23.568-19.106 42.674-42.674 42.674s-42.674-19.106-42.674-42.674v0-85.348c0.025-23.561 19.131-42.652 42.696-42.652v0z" />
<glyph unicode="&#xe93a;" glyph-name="tv" d="M933.977 780.043h-349.54l128.757 128.757c4.678 5.268 7.536 12.244 7.536 19.887 0 16.573-13.435 30.008-30.008 30.008-7.677 0-14.68-2.883-19.987-7.625l0.029 0.026-158.765-158.631-158.809 158.631c-5.468 5.678-13.135 9.205-21.627 9.205-16.573 0-30.008-13.435-30.008-30.008 0-8.491 3.527-16.159 9.196-21.618l0.009-0.009 128.801-128.623h-349.585c-49.679-0.076-89.928-40.341-89.978-90.018v-603.987c0.076-49.663 40.315-89.903 89.971-89.978h90.030v-30.008c0-16.573 13.435-30.008 30.008-30.008s30.008 13.435 30.008 30.008v0 30.008h543.967v-30.008c0-16.573 13.435-30.008 30.008-30.008s30.008 13.435 30.008 30.008v0 30.008h89.978c49.682 0.051 89.947 40.3 90.023 89.971v603.989c-0.051 49.698-40.325 89.972-90.018 90.023h-0.005zM963.985 86.038c-0.025-16.563-13.445-29.982-30.005-30.008h-844.001c-16.563 0.025-29.982 13.445-30.008 30.005v603.984c0.025 16.563 13.445 29.982 30.005 30.008h844.001c16.563-0.025 29.982-13.445 30.008-30.005v-0.002zM753.976 660.013h-603.982c-16.573 0-30.008-13.435-30.008-30.008v0-483.996c0-16.573 13.435-30.008 30.008-30.008h603.982c16.573 0 30.008 13.435 30.008 30.008v0 483.996c0 16.573-13.435 30.008-30.008 30.008v0zM723.968 176.017h-543.967v423.981h543.967zM912.696 581.565c0-24.589-19.933-44.522-44.522-44.522s-44.522 19.933-44.522 44.522c0 24.589 19.933 44.522 44.522 44.522s44.522-19.933 44.522-44.522zM912.696 448c0-24.589-19.933-44.522-44.522-44.522s-44.522 19.933-44.522 44.522c0 24.589 19.933 44.522 44.522 44.522s44.522-19.933 44.522-44.522zM874.006 360.025c-16.573 0-30.008-13.435-30.008-30.008v0-123.993c0-16.573 13.435-30.008 30.008-30.008s30.008 13.435 30.008 30.008v0 123.993c0 16.573-13.435 30.008-30.008 30.008v0z" />
<glyph unicode="&#xe93b;" glyph-name="previous-arrow" d="M683.851-47.616l-456.704 456.102c-10.108 10.205-16.353 24.251-16.353 39.755s6.245 29.551 16.357 39.76l-0.004-0.004 456.282 455.68c10.176 10.097 24.192 16.337 39.665 16.337s29.489-6.24 39.668-16.341l-0.004 0.004 33.611-33.551c10.119-10.143 16.376-24.143 16.376-39.605s-6.257-29.461-16.377-39.606l-383.156-382.915 383.578-382.856c10.105-10.15 16.351-24.148 16.351-39.605s-6.247-29.455-16.353-39.607l0.002 0.002-33.611-33.551c-10.163-10.126-24.183-16.386-39.665-16.386s-29.502 6.261-39.667 16.388l0.002-0.002z" />
<glyph unicode="&#xe93c;" glyph-name="next-arrow" d="M326.4 917.824l453.504-453.184c7.956-8.081 12.869-19.179 12.869-31.424s-4.913-23.343-12.875-31.43l0.006 0.006-453.504-452.992c-7.968-7.911-18.946-12.801-31.066-12.801-0.103 0-0.207 0-0.31 0.001h0.016c-0.095-0.001-0.208-0.001-0.32-0.001-12.112 0-23.081 4.89-31.042 12.803l-26.558 26.558c-7.911 7.949-12.801 18.91-12.801 31.013 0 0.122 0 0.244 0.001 0.365v-0.019c-0.001 0.103-0.001 0.225-0.001 0.347 0 12.103 4.89 23.064 12.803 31.015l-0.002-0.002 395.648 395.136-395.968 395.392c-7.911 7.949-12.801 18.91-12.801 31.013 0 0.122 0 0.244 0.001 0.365v-0.019c-0.001 0.084-0.001 0.184-0.001 0.283 0 12.103 4.89 23.064 12.803 31.015l26.558 26.558c8.091 8.013 19.227 12.964 31.52 12.964s23.429-4.951 31.524-12.968l-0.004 0.004z" />
<glyph unicode="&#xe93d;" glyph-name="calender" d="M921.6 960h-819.2c-56.479-0.185-102.215-45.92-102.4-102.382v-819.218c0.185-56.479 45.92-102.215 102.382-102.4h819.218c56.479 0.185 102.215 45.92 102.4 102.382v819.218c-0.185 56.479-45.92 102.215-102.382 102.4h-0.018zM276.34 58.833h-156.858v139.636h156.858v-139.636zM276.34 245.015h-156.858v139.636h156.858v-139.636zM264.518 804.817c-24.010 0-43.473 19.464-43.473 43.473s19.464 43.473 43.473 43.473c24.010 0 43.473-19.464 43.473-43.473v0c0-0.014 0-0.030 0-0.047 0-23.984-19.443-43.427-43.427-43.427-0.016 0-0.033 0-0.049 0h0.003zM485.655 58.833h-156.812v139.636h156.858zM485.655 245.015h-156.812v139.636h156.858zM485.655 431.197h-156.812v139.636h156.858zM468.527 848.291c0 24.010 19.464 43.473 43.473 43.473s43.473-19.464 43.473-43.473c0-24.010-19.464-43.473-43.473-43.473v0c-0.014 0-0.030 0-0.047 0-23.984 0-43.427 19.443-43.427 43.427 0 0.016 0 0.033 0 0.049v-0.003zM695.156 245.155h-156.858v139.636h156.905v-139.636zM695.156 431.337h-156.858v139.636h156.905v-139.636zM716.009 848.291c0 24.010 19.464 43.473 43.473 43.473s43.473-19.464 43.473-43.473c0-24.010-19.464-43.473-43.473-43.473v0c-0.014 0-0.030 0-0.047 0-23.984 0-43.427 19.443-43.427 43.427 0 0.016 0 0.033 0 0.049v-0.003zM904.518 245.155h-156.858v139.636h156.858zM904.518 431.337h-156.858v139.636h156.858z" />
<glyph unicode="&#xe93e;" glyph-name="wheelchair" d="M135.569 19.033l66.783 289.391c7.505 29.278 33.654 50.573 64.779 50.577h129.737c18.865 30.663 42.375 56.485 69.872 77.319l0.695 0.505v189.306c0.353 36.835 30.295 66.56 67.18 66.56 10.729 0 20.87-2.515 29.867-6.987l-0.391 0.176 133.565-66.783c21.922-11.095 36.688-33.453 36.688-59.26 0-0.172-0.001-0.343-0.002-0.514v0.026-85.393l1.247-0.356c104.621-41.562 177.241-141.923 177.241-259.246 0-153.655-124.562-278.216-278.216-278.216s-278.216 124.562-278.216 278.216c0 3.913 0.081 7.807 0.241 11.681l-0.018-0.554h-37.532l-53.96-238.948c-7.16-29.755-33.546-51.522-65.016-51.522-36.883 0-66.783 29.9-66.783 66.783 0 6.099 0.817 12.006 2.349 17.619l-0.109-0.468zM634.212 2.827c0.042 0 0.091 0 0.14 0 116.673 0 211.256 94.582 211.256 211.256 0 80.123-44.605 149.828-110.337 185.638l-1.107 0.552v-85.838c0.071-1.152 0.111-2.498 0.111-3.854 0-36.883-29.9-66.783-66.783-66.783s-66.783 29.9-66.783 66.783c0 1.356 0.040 2.702 0.12 4.038l-0.009-0.184v109.301c-1.423-0.557-3.138-1.064-4.903-1.432l-0.217-0.038c-99.124-18.799-173.069-104.745-173.069-207.961 0-116.796 94.682-211.478 211.478-211.478 0.020 0 0.040 0 0.061 0h-0.003zM523.086 960c55.325 0 100.174-44.849 100.174-100.174s-44.849-100.174-100.174-100.174c-55.325 0-100.174 44.849-100.174 100.174v0c0.051 55.304 44.87 100.123 100.169 100.174h0.005z" />
<glyph unicode="&#xe93f;" glyph-name="wifi" d="M166.511 470.751c-8.948-9.735-14.434-22.776-14.434-37.099 0-30.318 24.577-54.895 54.895-54.895 14.278 0 27.284 5.451 37.048 14.386l-0.042-0.038c68.634 68.465 163.361 110.8 267.976 110.8s199.342-42.335 267.984-110.807l-0.008 0.008c9.916-9.888 23.6-16.002 38.712-16.002 30.279 0 54.825 24.546 54.825 54.825 0 15.167-6.159 28.896-16.112 38.822l-0.001 0.001c-88.449 88.296-210.559 142.898-345.422 142.898s-256.972-54.602-345.428-142.904l0.007 0.007zM314.68 322.582c-9.936-9.936-16.081-23.662-16.081-38.823 0-30.323 24.581-54.904 54.904-54.904 15.161 0 28.887 6.145 38.823 16.081v0c30.625 30.669 72.956 49.641 119.719 49.641s89.094-18.972 119.717-49.639l0.002-0.002c9.991-10.46 24.048-16.962 39.624-16.962 30.244 0 54.762 24.518 54.762 54.762 0 15.576-6.503 29.632-16.941 39.604l-0.021 0.020c-50.494 50.544-120.278 81.81-197.365 81.81-76.976 0-146.67-31.176-197.145-81.59l0.002 0.002zM585.060 125.44c0-40.35-32.71-73.060-73.060-73.060s-73.060 32.71-73.060 73.060c0 40.35 32.71 73.060 73.060 73.060s73.060-32.71 73.060-73.060zM1007.972 621.457c-127.058 126.669-302.38 204.989-495.994 204.989s-368.936-78.32-496.012-205.006l0.017 0.017c-9.099-9.77-14.683-22.918-14.683-37.37 0-30.318 24.577-54.895 54.895-54.895 14.419 0 27.539 5.559 37.335 14.651l-0.035-0.032c107.136 107.036 255.090 173.232 418.504 173.232s311.368-66.196 418.508-173.236l-0.004 0.004c9.916-9.888 23.6-16.002 38.712-16.002 30.279 0 54.825 24.546 54.825 54.825 0 15.167-6.159 28.896-16.112 38.822l-0.001 0.001z" />
<glyph unicode="&#xe940;" glyph-name="wifi-fill" d="M874.045 810.045c-92.656 92.656-220.658 149.964-362.045 149.964-282.775 0-512.010-229.234-512.010-512.010 0-141.388 57.309-269.39 149.964-362.045v0c92.656-92.656 220.658-149.964 362.045-149.964 282.775 0 512.010 229.234 512.010 512.010 0 141.388-57.309 269.39-149.964 362.045v0zM514.417 234.394c-16.559 0-29.983 13.424-29.983 29.983s13.424 29.983 29.983 29.983c16.559 0 29.983-13.424 29.983-29.983v0c0-16.559-13.424-29.983-29.983-29.983v0zM622.879 330.322c-5.452-5.433-12.973-8.792-21.279-8.792s-15.827 3.359-21.28 8.793l0.001-0.001c-16.891 16.812-40.184 27.205-65.905 27.205s-49.013-10.393-65.908-27.209l0.004 0.004c-5.43-5.43-12.931-8.788-21.217-8.788-16.572 0-30.006 13.434-30.006 30.006 0 8.286 3.359 15.787 8.788 21.217v0c27.762 27.7 66.081 44.828 108.401 44.828s80.639-17.129 108.404-44.831l-0.003 0.003c5.418-5.443 8.768-12.949 8.768-21.238 0-8.268-3.333-15.758-8.729-21.199l0.002 0.002zM711.516 419.328c-5.452-5.433-12.973-8.792-21.279-8.792s-15.827 3.359-21.28 8.793l0.001-0.001c-39.652 39.562-94.384 64.026-154.829 64.026s-115.176-24.464-154.833-64.030l0.004 0.004c-5.349-5.002-12.558-8.073-20.484-8.073-16.582 0-30.024 13.442-30.024 30.024 0 7.926 3.071 15.135 8.089 20.501l-0.016-0.017c50.514 50.401 120.239 81.568 197.243 81.568s146.729-31.166 197.248-81.573l-0.005 0.005c5.445-5.454 8.813-12.984 8.813-21.3 0-8.235-3.302-15.698-8.653-21.139l0.004 0.004zM794.87 502.927c-5.427-5.436-12.93-8.798-21.217-8.798s-15.79 3.362-21.217 8.798v0c-60.948 60.823-145.081 98.434-237.998 98.434s-177.050-37.611-238.004-98.44l0.005 0.005c-5.428-5.433-12.93-8.794-21.217-8.794-16.564 0-29.991 13.428-29.991 29.991 0 8.277 3.353 15.77 8.774 21.197v0c71.817 71.665 170.949 115.98 280.433 115.98s208.616-44.315 280.439-115.986l-0.007 0.007c5.389-5.426 8.72-12.902 8.72-21.156s-3.331-15.73-8.722-21.158l0.002 0.002z" />
<glyph unicode="&#xe941;" glyph-name="window" d="M991.989 960h-959.978c-17.679 0-32.011-14.332-32.011-32.011v0-959.978c0-17.679 14.332-32.011 32.011-32.011h959.978c17.679 0 32.011 14.332 32.011 32.011v0 959.978c0 17.679-14.332 32.011-32.011 32.011v0zM959.978 0.022h-895.955v895.955h895.955zM863.989 832h-703.978c-17.679 0-32.011-14.332-32.011-32.011v0-703.978c0-17.679 14.332-32.011 32.011-32.011v0h703.978c17.679 0 32.011 14.332 32.011 32.011v0 703.978c0 17.679-14.332 32.011-32.011 32.011v0zM479.989 128.022h-287.967v287.967h288.011zM479.989 480.011h-287.967v287.967h288.011zM831.978 128.022h-287.967v287.967h288.011zM831.978 480.011h-287.967v287.967h288.011z" />
<glyph unicode="&#xe9c1;" glyph-name="radio-button-unselected" d="M512.092-16.182c-256.31 0-464.090 207.78-464.090 464.090s207.78 464.090 464.090 464.090c256.31 0 464.090-207.78 464.090-464.090v0c-0.247-256.21-207.88-463.843-464.066-464.090h-0.024zM512.092 854.017c-0.036 0-0.081 0-0.124 0-224.22 0-405.987-181.767-405.987-405.987s181.767-405.987 405.987-405.987c224.177 0 405.916 181.696 405.987 405.855v0.007c-0.176 224.13-181.751 405.793-405.831 406.109h-0.029zM512.092 854.017" />
<glyph unicode="&#xe9c2;" glyph-name="radio-button-selected" d="M498.218 959.051c-49.388-0.952-98.361-9.162-145.152-24.755-176.187-58.711-311.233-213.864-344.815-396.074-6.893-37.401-8.37-112.237-3-152.904 18.884-143.037 96.207-273.119 211.915-356.317 31.122-22.378 93.551-53.774 132.275-66.513 35.802-11.777 76.618-20.16 113.146-23.379 99.95-8.81 189.621 8.090 278.177 52.51 144.43 72.445 245.888 207.931 274.801 366.944 7.201 39.606 8.699 130.058 2.751 166.406-27.655 168.99-126.626 304.046-277.552 378.946-76.727 38.077-160.233 56.723-242.546 55.135zM510.97 835.403c24.911 0.010 49.851-1.474 67.138-4.376 56.099-9.417 120.983-37.391 167.281-72.139 48.751-36.588 92.144-89.568 117.772-143.777 41.171-87.084 49.153-187.436 22.379-279.427-40.843-140.328-161.586-246.204-310.058-271.801-37.115-6.399-92.988-6.897-127.149-1.125-160.929 27.192-291.739 157.162-320.31 318.060-5.599 31.53-5.677 97.52-0.128 128.274 30.474 168.72 153.789 294.355 316.059 321.935 17.156 2.916 42.101 4.366 67.013 4.376zM512.221 726.633c-0.009 0-0.020 0-0.031 0-153.892 0-278.646-124.754-278.646-278.646 0-0.011 0-0.022 0-0.033v0.002c0-0.009 0-0.020 0-0.031 0-153.892 124.754-278.646 278.646-278.646 0.011 0 0.022 0 0.033 0h-0.002c0.009 0 0.020 0 0.031 0 153.892 0 278.646 124.754 278.646 278.646 0 0.011 0 0.022 0 0.033v-0.002c0 0.009 0 0.020 0 0.031 0 153.892-124.754 278.646-278.646 278.646-0.011 0-0.022 0-0.033 0h0.002z" />
<glyph unicode="&#xe9c3;" glyph-name="star-full" d="M1024 562.95l-353.78 51.408-158.22 320.582-158.216-320.582-353.784-51.408 256-249.538-60.432-352.352 316.432 166.358 316.432-166.358-60.434 352.352 256.002 249.538z" />
</font>
</defs>
</svg>
